<?xml version="1.0" encoding="UTF-8" standalone="no"?>
<svg
   xmlns:dc="http://purl.org/dc/elements/1.1/"
   xmlns:cc="http://creativecommons.org/ns#"
   xmlns:rdf="http://www.w3.org/1999/02/22-rdf-syntax-ns#"
   xmlns:svg="http://www.w3.org/2000/svg"
   xmlns="http://www.w3.org/2000/svg"
   xmlns:sodipodi="http://sodipodi.sourceforge.net/DTD/sodipodi-0.dtd"
   xmlns:inkscape="http://www.inkscape.org/namespaces/inkscape"
   inkscape:version="1.0beta2 (2b71d25, 2019-12-03)"
   sodipodi:docname="Fig2.1.svg"
   viewBox="0 0 576 384"
   height="384"
   width="576"
   xml:space="preserve"
   id="svg28"
   version="1.1"><metadata
     id="metadata34"><rdf:RDF><cc:Work
         rdf:about=""><dc:format>image/svg+xml</dc:format><dc:type
           rdf:resource="http://purl.org/dc/dcmitype/StillImage" /><dc:title></dc:title></cc:Work></rdf:RDF></metadata><defs
     id="defs32" /><sodipodi:namedview
     inkscape:current-layer="g38"
     inkscape:window-maximized="0"
     inkscape:window-y="23"
     inkscape:window-x="0"
     inkscape:cy="192"
     inkscape:cx="288"
     inkscape:zoom="1.625"
     showgrid="false"
     id="namedview30"
     inkscape:window-height="836"
     inkscape:window-width="1440"
     inkscape:pageshadow="2"
     inkscape:pageopacity="0"
     guidetolerance="10"
     gridtolerance="10"
     objecttolerance="10"
     borderopacity="1"
     inkscape:document-rotation="0"
     bordercolor="#666666"
     pagecolor="#ffffff" /><g
     transform="matrix(1.3333333,0,0,-1.3333333,0,384)"
     inkscape:label="Fig2"
     inkscape:groupmode="layer"
     id="g36"><g
       id="g38"><path
         inkscape:connector-curvature="0"
         id="path40"
         style="fill:#ffffff;fill-opacity:1;fill-rule:nonzero;stroke:none"
         d="M 0,0 H 432 V 288 H 0 Z" /><path
         inkscape:connector-curvature="0"
         id="path42"
         style="fill:#ffffff;fill-opacity:1;fill-rule:nonzero;stroke:none"
         d="M 0,0 H 432 V 288 H 0 Z" /><path
         inkscape:export-ydpi="238.63814"
         inkscape:export-xdpi="238.63814"
         inkscape:connector-curvature="0"
         id="path44"
         style="fill:none;stroke:#ffffff;stroke-width:1.06698;stroke-linecap:round;stroke-linejoin:round;stroke-miterlimit:10;stroke-dasharray:none;stroke-opacity:1"
         d="M 0,288 H 432 V 0 H 0 Z" /><path
         inkscape:connector-curvature="0"
         id="path46"
         style="fill:#000000;fill-opacity:1;fill-rule:nonzero;stroke:#000000;stroke-width:1.41732;stroke-linecap:round;stroke-linejoin:round;stroke-miterlimit:10;stroke-dasharray:none;stroke-opacity:1"
         d="m 333.883,250.906 h 8.82 v -8.82 h -8.82 z" /><path
         inkscape:connector-curvature="0"
         id="path48"
         style="fill:#bebebe;fill-opacity:1;fill-rule:nonzero;stroke:#000000;stroke-width:1.41732;stroke-linecap:round;stroke-linejoin:round;stroke-miterlimit:10;stroke-dasharray:none;stroke-opacity:1"
         d="m 384.785,198.969 h 8.82 v -8.82 h -8.82 z" /><path
         inkscape:connector-curvature="0"
         id="path50"
         style="fill:#bebebe;fill-opacity:1;fill-rule:nonzero;stroke:#000000;stroke-width:1.41732;stroke-linecap:round;stroke-linejoin:round;stroke-miterlimit:10;stroke-dasharray:none;stroke-opacity:1"
         d="m 193.348,112.789 h 8.82 v -8.82 h -8.82 z" /><path
         inkscape:connector-curvature="0"
         id="path52"
         style="fill:#bebebe;fill-opacity:1;fill-rule:nonzero;stroke:#000000;stroke-width:1.41732;stroke-linecap:round;stroke-linejoin:round;stroke-miterlimit:10;stroke-dasharray:none;stroke-opacity:1"
         d="m 279.66,163.195 h 8.82 v -8.82 h -8.82 z" /><path
         inkscape:connector-curvature="0"
         id="path54"
         style="fill:#bebebe;fill-opacity:1;fill-rule:nonzero;stroke:#000000;stroke-width:1.41732;stroke-linecap:round;stroke-linejoin:round;stroke-miterlimit:10;stroke-dasharray:none;stroke-opacity:1"
         d="m 114.781,99.781 h 8.82 v -8.82 h -8.82 z" /><path
         inkscape:connector-curvature="0"
         id="path56"
         style="fill:#000000;fill-opacity:1;fill-rule:nonzero;stroke:#000000;stroke-width:1.41732;stroke-linecap:round;stroke-linejoin:round;stroke-miterlimit:10;stroke-dasharray:none;stroke-opacity:1"
         d="m 265.496,165.578 h 8.82 v -8.82 h -8.82 z" /><path
         inkscape:connector-curvature="0"
         id="path58"
         style="fill:#bebebe;fill-opacity:1;fill-rule:nonzero;stroke:#000000;stroke-width:1.41732;stroke-linecap:round;stroke-linejoin:round;stroke-miterlimit:10;stroke-dasharray:none;stroke-opacity:1"
         d="m 175.645,112.512 h 8.82 v -8.82 h -8.82 z" /><path
         inkscape:connector-curvature="0"
         id="path60"
         style="fill:#000000;fill-opacity:1;fill-rule:nonzero;stroke:#000000;stroke-width:1.41732;stroke-linecap:round;stroke-linejoin:round;stroke-miterlimit:10;stroke-dasharray:none;stroke-opacity:1"
         d="m 202.867,187.973 h 8.82 v -8.82 h -8.82 z" /><path
         inkscape:connector-curvature="0"
         id="path62"
         style="fill:#000000;fill-opacity:1;fill-rule:nonzero;stroke:#000000;stroke-width:1.41732;stroke-linecap:round;stroke-linejoin:round;stroke-miterlimit:10;stroke-dasharray:none;stroke-opacity:1"
         d="m 331.672,200.074 h 8.82 v -8.82 h -8.82 z" /><path
         inkscape:connector-curvature="0"
         id="path64"
         style="fill:#bebebe;fill-opacity:1;fill-rule:nonzero;stroke:#000000;stroke-width:1.41732;stroke-linecap:round;stroke-linejoin:round;stroke-miterlimit:10;stroke-dasharray:none;stroke-opacity:1"
         d="m 359.336,199.551 h 8.82 v -8.82 h -8.82 z" /><path
         inkscape:connector-curvature="0"
         id="path66"
         style="fill:#bebebe;fill-opacity:1;fill-rule:nonzero;stroke:#000000;stroke-width:1.41732;stroke-linecap:round;stroke-linejoin:round;stroke-miterlimit:10;stroke-dasharray:none;stroke-opacity:1"
         d="m 405.809,250.598 h 8.82 v -8.82 h -8.82 z" /><path
         inkscape:connector-curvature="0"
         id="path68"
         style="fill:#bebebe;fill-opacity:1;fill-rule:nonzero;stroke:#000000;stroke-width:1.41732;stroke-linecap:round;stroke-linejoin:round;stroke-miterlimit:10;stroke-dasharray:none;stroke-opacity:1"
         d="m 309.098,164.438 h 8.82 v -8.82 h -8.82 z" /><path
         inkscape:connector-curvature="0"
         id="path70"
         style="fill:#bebebe;fill-opacity:1;fill-rule:nonzero;stroke:#000000;stroke-width:1.41732;stroke-linecap:round;stroke-linejoin:round;stroke-miterlimit:10;stroke-dasharray:none;stroke-opacity:1"
         d="m 143.109,68.074 h 8.82 v -8.82 h -8.82 z" /><path
         inkscape:connector-curvature="0"
         id="path72"
         style="fill:#000000;fill-opacity:1;fill-rule:nonzero;stroke:#000000;stroke-width:1.41732;stroke-linecap:round;stroke-linejoin:round;stroke-miterlimit:10;stroke-dasharray:none;stroke-opacity:1"
         d="m 84.906,141.562 h 8.82 v -8.82 h -8.82 z" /><path
         inkscape:connector-curvature="0"
         id="path74"
         style="fill:#000000;fill-opacity:1;fill-rule:nonzero;stroke:#000000;stroke-width:1.41732;stroke-linecap:round;stroke-linejoin:round;stroke-miterlimit:10;stroke-dasharray:none;stroke-opacity:1"
         d="m 365.973,233.629 h 8.82 v -8.82 h -8.82 z" /><path
         inkscape:connector-curvature="0"
         id="path76"
         style="fill:#000000;fill-opacity:1;fill-rule:nonzero;stroke:#000000;stroke-width:1.41732;stroke-linecap:round;stroke-linejoin:round;stroke-miterlimit:10;stroke-dasharray:none;stroke-opacity:1"
         d="m 257.531,167.234 h 8.82 v -8.82 h -8.82 z" /><path
         inkscape:connector-curvature="0"
         id="path78"
         style="fill:#000000;fill-opacity:1;fill-rule:nonzero;stroke:#000000;stroke-width:1.41732;stroke-linecap:round;stroke-linejoin:round;stroke-miterlimit:10;stroke-dasharray:none;stroke-opacity:1"
         d="m 184.496,109.102 h 8.82 v -8.82 h -8.82 z" /><path
         inkscape:connector-curvature="0"
         id="path80"
         style="fill:#000000;fill-opacity:1;fill-rule:nonzero;stroke:#000000;stroke-width:1.41732;stroke-linecap:round;stroke-linejoin:round;stroke-miterlimit:10;stroke-dasharray:none;stroke-opacity:1"
         d="m 293.16,184.078 h 8.82 v -8.82 h -8.82 z" /><path
         inkscape:connector-curvature="0"
         id="path82"
         style="fill:#000000;fill-opacity:1;fill-rule:nonzero;stroke:#000000;stroke-width:1.41732;stroke-linecap:round;stroke-linejoin:round;stroke-miterlimit:10;stroke-dasharray:none;stroke-opacity:1"
         d="m 313.078,224.348 h 8.82 v -8.82 h -8.82 z" /><path
         inkscape:connector-curvature="0"
         id="path84"
         style="fill:#bebebe;fill-opacity:1;fill-rule:nonzero;stroke:#000000;stroke-width:1.41732;stroke-linecap:round;stroke-linejoin:round;stroke-miterlimit:10;stroke-dasharray:none;stroke-opacity:1"
         d="m 324.145,205.504 h 8.82 v -8.82 h -8.82 z" /><path
         inkscape:connector-curvature="0"
         id="path86"
         style="fill:#bebebe;fill-opacity:1;fill-rule:nonzero;stroke:#000000;stroke-width:1.41732;stroke-linecap:round;stroke-linejoin:round;stroke-miterlimit:10;stroke-dasharray:none;stroke-opacity:1"
         d="m 251.555,158.168 h 8.82 v -8.82 h -8.82 z" /><path
         inkscape:connector-curvature="0"
         id="path88"
         style="fill:#bebebe;fill-opacity:1;fill-rule:nonzero;stroke:#000000;stroke-width:1.41732;stroke-linecap:round;stroke-linejoin:round;stroke-miterlimit:10;stroke-dasharray:none;stroke-opacity:1"
         d="m 104.25,66.723 c 0,-6.637 -9.953,-6.637 -9.953,0 0,6.632 9.953,6.632 9.953,0" /><path
         inkscape:connector-curvature="0"
         id="path90"
         style="fill:#bebebe;fill-opacity:1;fill-rule:nonzero;stroke:#000000;stroke-width:1.41732;stroke-linecap:round;stroke-linejoin:round;stroke-miterlimit:10;stroke-dasharray:none;stroke-opacity:1"
         d="m 124.391,88.781 c 0,-6.636 -9.953,-6.636 -9.953,0 0,6.637 9.953,6.637 9.953,0" /><path
         inkscape:connector-curvature="0"
         id="path92"
         style="fill:#bebebe;fill-opacity:1;fill-rule:nonzero;stroke:#000000;stroke-width:1.41732;stroke-linecap:round;stroke-linejoin:round;stroke-miterlimit:10;stroke-dasharray:none;stroke-opacity:1"
         d="m 152.5,88.324 c 0,-6.636 -9.953,-6.636 -9.953,0 0,6.633 9.953,6.633 9.953,0" /><path
         inkscape:connector-curvature="0"
         id="path94"
         style="fill:#bebebe;fill-opacity:1;fill-rule:nonzero;stroke:#000000;stroke-width:1.41732;stroke-linecap:round;stroke-linejoin:round;stroke-miterlimit:10;stroke-dasharray:none;stroke-opacity:1"
         d="m 185.254,129.855 c 0,-6.636 -9.953,-6.636 -9.953,0 0,6.637 9.953,6.637 9.953,0" /><path
         inkscape:connector-curvature="0"
         id="path96"
         style="fill:#bebebe;fill-opacity:1;fill-rule:nonzero;stroke:#000000;stroke-width:1.41732;stroke-linecap:round;stroke-linejoin:round;stroke-miterlimit:10;stroke-dasharray:none;stroke-opacity:1"
         d="m 202.957,146.738 c 0,-6.636 -9.953,-6.636 -9.953,0 0,6.637 9.953,6.637 9.953,0" /><path
         inkscape:connector-curvature="0"
         id="path98"
         style="fill:#bebebe;fill-opacity:1;fill-rule:nonzero;stroke:#000000;stroke-width:1.41732;stroke-linecap:round;stroke-linejoin:round;stroke-miterlimit:10;stroke-dasharray:none;stroke-opacity:1"
         d="m 260.941,168.402 c 0,-6.636 -9.953,-6.636 -9.953,0 0,6.637 9.953,6.637 9.953,0" /><path
         inkscape:connector-curvature="0"
         id="path100"
         style="fill:#bebebe;fill-opacity:1;fill-rule:nonzero;stroke:#000000;stroke-width:1.41732;stroke-linecap:round;stroke-linejoin:round;stroke-miterlimit:10;stroke-dasharray:none;stroke-opacity:1"
         d="m 289.27,192.242 c 0,-6.637 -9.954,-6.637 -9.954,0 0,6.637 9.954,6.637 9.954,0" /><path
         inkscape:connector-curvature="0"
         id="path102"
         style="fill:#bebebe;fill-opacity:1;fill-rule:nonzero;stroke:#000000;stroke-width:1.41732;stroke-linecap:round;stroke-linejoin:round;stroke-miterlimit:10;stroke-dasharray:none;stroke-opacity:1"
         d="m 318.484,221.641 c 0,-6.637 -9.953,-6.637 -9.953,0 0,6.636 9.953,6.636 9.953,0" /><path
         inkscape:connector-curvature="0"
         id="path104"
         style="fill:#bebebe;fill-opacity:1;fill-rule:nonzero;stroke:#000000;stroke-width:1.41732;stroke-linecap:round;stroke-linejoin:round;stroke-miterlimit:10;stroke-dasharray:none;stroke-opacity:1"
         d="m 333.977,231.371 c 0,-6.633 -9.954,-6.633 -9.954,0 0,6.637 9.954,6.637 9.954,0" /><path
         inkscape:connector-curvature="0"
         id="path106"
         style="fill:#bebebe;fill-opacity:1;fill-rule:nonzero;stroke:#000000;stroke-width:1.41732;stroke-linecap:round;stroke-linejoin:round;stroke-miterlimit:10;stroke-dasharray:none;stroke-opacity:1"
         d="m 368.941,224.668 c 0,-6.633 -9.953,-6.633 -9.953,0 0,6.637 9.953,6.637 9.953,0" /><path
         inkscape:connector-curvature="0"
         id="path108"
         style="fill:#bebebe;fill-opacity:1;fill-rule:nonzero;stroke:#000000;stroke-width:1.41732;stroke-linecap:round;stroke-linejoin:round;stroke-miterlimit:10;stroke-dasharray:none;stroke-opacity:1"
         d="m 394.172,221.34 c 0,-6.637 -9.953,-6.637 -9.953,0 0,6.633 9.953,6.633 9.953,0" /><path
         inkscape:connector-curvature="0"
         id="path110"
         style="fill:#bebebe;fill-opacity:1;fill-rule:nonzero;stroke:#000000;stroke-width:1.41732;stroke-linecap:round;stroke-linejoin:round;stroke-miterlimit:10;stroke-dasharray:none;stroke-opacity:1"
         d="m 415.418,251.273 c 0,-6.636 -9.953,-6.636 -9.953,0 0,6.637 9.953,6.637 9.953,0" /><path
         inkscape:connector-curvature="0"
         id="path112"
         style="fill:#000000;fill-opacity:1;fill-rule:nonzero;stroke:#000000;stroke-width:1.41732;stroke-linecap:round;stroke-linejoin:round;stroke-miterlimit:10;stroke-dasharray:none;stroke-opacity:1"
         d="m 93.852,113.949 c 0,-6.637 -9.954,-6.637 -9.954,0 0,6.633 9.954,6.633 9.954,0" /><path
         inkscape:connector-curvature="0"
         id="path114"
         style="fill:#000000;fill-opacity:1;fill-rule:nonzero;stroke:#000000;stroke-width:1.41732;stroke-linecap:round;stroke-linejoin:round;stroke-miterlimit:10;stroke-dasharray:none;stroke-opacity:1"
         d="m 213.359,204.031 c 0,-6.636 -9.953,-6.636 -9.953,0 0,6.637 9.953,6.637 9.953,0" /><path
         inkscape:connector-curvature="0"
         id="path116"
         style="fill:#000000;fill-opacity:1;fill-rule:nonzero;stroke:#000000;stroke-width:1.41732;stroke-linecap:round;stroke-linejoin:round;stroke-miterlimit:10;stroke-dasharray:none;stroke-opacity:1"
         d="m 236.598,173.5 c 0,-6.637 -9.953,-6.637 -9.953,0 0,6.633 9.953,6.633 9.953,0" /><path
         inkscape:connector-curvature="0"
         id="path118"
         style="fill:#000000;fill-opacity:1;fill-rule:nonzero;stroke:#000000;stroke-width:1.41732;stroke-linecap:round;stroke-linejoin:round;stroke-miterlimit:10;stroke-dasharray:none;stroke-opacity:1"
         d="m 249.875,200.848 c 0,-6.633 -9.953,-6.633 -9.953,0 0,6.636 9.953,6.636 9.953,0" /><path
         inkscape:connector-curvature="0"
         id="path120"
         style="fill:#000000;fill-opacity:1;fill-rule:nonzero;stroke:#000000;stroke-width:1.41732;stroke-linecap:round;stroke-linejoin:round;stroke-miterlimit:10;stroke-dasharray:none;stroke-opacity:1"
         d="m 270.457,212.445 c 0,-6.636 -9.953,-6.636 -9.953,0 0,6.633 9.953,6.633 9.953,0" /><path
         inkscape:connector-curvature="0"
         id="path122"
         style="fill:#000000;fill-opacity:1;fill-rule:nonzero;stroke:#000000;stroke-width:1.41732;stroke-linecap:round;stroke-linejoin:round;stroke-miterlimit:10;stroke-dasharray:none;stroke-opacity:1"
         d="m 288.605,210.734 c 0,-6.636 -9.953,-6.636 -9.953,0 0,6.633 9.953,6.633 9.953,0" /><path
         inkscape:connector-curvature="0"
         id="path124"
         style="fill:#000000;fill-opacity:1;fill-rule:nonzero;stroke:#000000;stroke-width:1.41732;stroke-linecap:round;stroke-linejoin:round;stroke-miterlimit:10;stroke-dasharray:none;stroke-opacity:1"
         d="m 296.352,228.957 c 0,-6.637 -9.954,-6.637 -9.954,0 0,6.633 9.954,6.633 9.954,0" /><path
         inkscape:connector-curvature="0"
         id="path126"
         style="fill:#000000;fill-opacity:1;fill-rule:nonzero;stroke:#000000;stroke-width:1.41732;stroke-linecap:round;stroke-linejoin:round;stroke-miterlimit:10;stroke-dasharray:none;stroke-opacity:1"
         d="m 323.133,241.445 c 0,-6.636 -9.953,-6.636 -9.953,0 0,6.637 9.953,6.637 9.953,0" /><path
         inkscape:connector-curvature="0"
         id="path128"
         style="fill:#000000;fill-opacity:1;fill-rule:nonzero;stroke:#000000;stroke-width:1.41732;stroke-linecap:round;stroke-linejoin:round;stroke-miterlimit:10;stroke-dasharray:none;stroke-opacity:1"
         d="m 353.008,251.898 c 0,-6.636 -9.953,-6.636 -9.953,0 0,6.637 9.953,6.637 9.953,0" /><path
         inkscape:connector-curvature="0"
         id="path130"
         style="fill:#000000;fill-opacity:1;fill-rule:nonzero;stroke:#000000;stroke-width:1.41732;stroke-linecap:round;stroke-linejoin:round;stroke-miterlimit:10;stroke-dasharray:none;stroke-opacity:1"
         d="m 361.418,272.098 c 0,-6.633 -9.953,-6.633 -9.953,0 0,6.636 9.953,6.636 9.953,0" /><path
         inkscape:connector-curvature="0"
         id="path132"
         style="fill:none;stroke:#000000;stroke-width:3.20093;stroke-linecap:butt;stroke-linejoin:round;stroke-miterlimit:10;stroke-dasharray:22.4065, 9.60281;stroke-dashoffset:0;stroke-opacity:1"
         d="m 89.316,110.406 7.118,2.86 3.554,1.425 7.117,2.86 3.559,1.426 3.559,1.429 3.554,1.43 3.559,1.426 10.676,4.289 3.554,1.426 7.118,2.859 3.558,1.426 3.559,1.429 3.554,1.43 3.559,1.43 3.559,1.426 7.117,2.859 3.555,1.426 7.117,2.859 3.558,1.426 3.559,1.43 3.555,1.429 3.558,1.43 3.559,1.426 7.117,2.859 3.555,1.426 10.675,4.289 3.559,1.426 3.555,1.429 3.558,1.43 3.559,1.426 7.117,2.859 3.555,1.426 10.676,4.289 3.558,1.426 3.555,1.43 3.558,1.429 3.559,1.426 10.676,4.289 3.555,1.426 7.117,2.859 3.558,1.426 3.559,1.43 3.555,1.429 3.558,1.426 10.676,4.289 3.555,1.426 7.117,2.859 3.558,1.426 3.559,1.43 3.555,1.43 3.558,1.429 3.559,1.426 7.117,2.859 3.555,1.426 7.117,2.86 3.559,1.425 3.558,1.43 3.555,1.43" /><path
         inkscape:connector-curvature="0"
         id="path134"
         style="fill:none;stroke:#bebebe;stroke-width:3.20093;stroke-linecap:butt;stroke-linejoin:round;stroke-miterlimit:10;stroke-dasharray:22.4065, 9.60281;stroke-dashoffset:0;stroke-opacity:1"
         d="m 119.195,73.262 36.836,19.297 3.684,1.925 3.683,1.93 3.688,1.93 36.836,19.297 3.683,1.925 3.684,1.93 3.688,1.93 36.835,19.297 3.684,1.925 7.367,3.86 3.688,1.93 33.152,17.367 3.684,1.925 7.367,3.86 3.687,1.93 33.153,17.367 3.683,1.925 7.368,3.86 3.687,1.93 33.152,17.367 3.684,1.926 7.367,3.859 3.688,1.93" /><path
         inkscape:connector-curvature="0"
         id="path136"
         style="fill:none;stroke:#000000;stroke-width:3.20093;stroke-linecap:butt;stroke-linejoin:round;stroke-miterlimit:10;stroke-dasharray:none;stroke-opacity:1"
         d="m 88.875,115.332 3.387,1.856 6.773,3.703 3.387,1.855 3.387,1.852 3.386,1.855 3.387,1.852 3.387,1.855 3.386,1.852 3.387,1.855 3.387,1.852 3.387,1.855 6.773,3.703 3.387,1.856 3.39,1.851 3.387,1.856 3.387,1.851 3.387,1.856 3.386,1.851 3.387,1.856 6.773,3.703 3.387,1.855 3.387,1.852 3.387,1.856 3.386,1.851 3.387,1.856 3.387,1.851 3.386,1.856 6.774,3.703 3.387,1.855 3.39,1.852 3.387,1.855 3.387,1.852 3.386,1.855 3.387,1.852 3.387,1.855 6.773,3.703 3.387,1.856 3.387,1.851 3.386,1.856 3.387,1.851 3.387,1.856 3.387,1.852 3.386,1.855 6.774,3.703 3.386,1.856 3.391,1.851 3.387,1.856 3.387,1.851 3.386,1.856 3.387,1.851 3.387,1.856 6.773,3.703 3.387,1.855 3.387,1.852 3.386,1.855 3.387,1.852 3.387,1.855 3.386,1.852 3.387,1.855 6.774,3.703 3.386,1.856 3.391,1.851 3.387,1.856 3.386,1.852 3.387,1.855 3.387,1.852 3.387,1.855 6.773,3.703 3.387,1.856 3.386,1.851" /><path
         inkscape:connector-curvature="0"
         id="path138"
         style="fill:none;stroke:#bebebe;stroke-width:3.20093;stroke-linecap:butt;stroke-linejoin:round;stroke-miterlimit:10;stroke-dasharray:none;stroke-opacity:1"
         d="m 99.273,76.965 3.942,2.297 7.875,4.593 3.941,2.297 7.875,4.594 3.942,2.297 3.937,2.297 3.942,2.297 3.937,2.301 3.938,2.296 3.941,2.297 7.875,4.594 3.941,2.297 7.875,4.594 3.942,2.296 7.875,4.594 3.941,2.297 7.875,4.594 3.942,2.297 7.875,4.594 3.941,2.296 7.875,4.594 3.941,2.297 3.938,2.297 3.937,2.301 3.942,2.297 7.875,4.593 3.941,2.297 7.875,4.594 3.942,2.297 7.875,4.594 3.941,2.296 7.875,4.594 3.941,2.297 7.875,4.594 3.942,2.297 7.875,4.593 3.941,2.297 3.938,2.297 3.937,2.301 3.942,2.297 7.875,4.594 3.941,2.296 7.875,4.594 3.941,2.297 7.875,4.594 3.942,2.297 7.875,4.593 3.941,2.297 7.875,4.594 3.942,2.297 7.875,4.594 3.941,2.297 7.875,4.593 3.942,2.301 3.937,2.297 3.941,2.297 7.875,4.594" /><path
         inkscape:connector-curvature="0"
         id="path140"
         style="fill:none;stroke:#000000;stroke-width:1.06698;stroke-linecap:butt;stroke-linejoin:round;stroke-miterlimit:10;stroke-dasharray:none;stroke-opacity:1"
         d="M 72.797,53.242 V 282.52" /><text
         id="text150"
         style="font-variant:normal;font-weight:normal;font-size:19.2px;font-family:Helvetica;-inkscape-font-specification:Helvetica;writing-mode:lr-tb;fill:#4d4d4d;fill-opacity:1;fill-rule:nonzero;stroke:none"
         transform="matrix(1,0,0,-1,30.488281,79.699219)"><tspan
           id="tspan142"
           sodipodi:role="line"
           y="0"
           x="0 10.6752 21.350401 26.6688">12.5</tspan><tspan
           id="tspan144"
           sodipodi:role="line"
           y="-61.242184"
           x="0 10.6752 21.350401 26.6688">13.0</tspan><tspan
           id="tspan146"
           sodipodi:role="line"
           y="-122.48047"
           x="0 10.6752 21.350401 26.6688">13.5</tspan><tspan
           id="tspan148"
           sodipodi:role="line"
           y="-183.72266"
           x="0 10.6752 21.350401 26.6688">14.0</tspan></text><path
         inkscape:connector-curvature="0"
         id="path152"
         style="fill:none;stroke:#333333;stroke-width:1.06698;stroke-linecap:butt;stroke-linejoin:round;stroke-miterlimit:10;stroke-dasharray:none;stroke-opacity:1"
         d="m 70.055,86.59 h 2.742" /><path
         inkscape:connector-curvature="0"
         id="path154"
         style="fill:none;stroke:#333333;stroke-width:1.06698;stroke-linecap:butt;stroke-linejoin:round;stroke-miterlimit:10;stroke-dasharray:none;stroke-opacity:1"
         d="m 70.055,147.832 h 2.742" /><path
         inkscape:connector-curvature="0"
         id="path156"
         style="fill:none;stroke:#333333;stroke-width:1.06698;stroke-linecap:butt;stroke-linejoin:round;stroke-miterlimit:10;stroke-dasharray:none;stroke-opacity:1"
         d="m 70.055,209.07 h 2.742" /><path
         inkscape:connector-curvature="0"
         id="path158"
         style="fill:none;stroke:#333333;stroke-width:1.06698;stroke-linecap:butt;stroke-linejoin:round;stroke-miterlimit:10;stroke-dasharray:none;stroke-opacity:1"
         d="m 70.055,270.312 h 2.742" /><path
         inkscape:connector-curvature="0"
         id="path160"
         style="fill:none;stroke:#000000;stroke-width:1.06698;stroke-linecap:butt;stroke-linejoin:round;stroke-miterlimit:10;stroke-dasharray:none;stroke-opacity:1"
         d="M 72.797,53.242 H 426.52" /><path
         inkscape:connector-curvature="0"
         id="path162"
         style="fill:none;stroke:#333333;stroke-width:1.06698;stroke-linecap:butt;stroke-linejoin:round;stroke-miterlimit:10;stroke-dasharray:none;stroke-opacity:1"
         d="m 172.973,50.504 v 2.738" /><path
         inkscape:connector-curvature="0"
         id="path164"
         style="fill:none;stroke:#333333;stroke-width:1.06698;stroke-linecap:butt;stroke-linejoin:round;stroke-miterlimit:10;stroke-dasharray:none;stroke-opacity:1"
         d="m 283.629,50.504 v 2.738" /><path
         inkscape:connector-curvature="0"
         id="path166"
         style="fill:none;stroke:#333333;stroke-width:1.06698;stroke-linecap:butt;stroke-linejoin:round;stroke-miterlimit:10;stroke-dasharray:none;stroke-opacity:1"
         d="m 394.285,50.504 v 2.738" /><text
         id="text170"
         style="font-variant:normal;font-weight:normal;font-size:19.2px;font-family:Helvetica;-inkscape-font-specification:Helvetica;writing-mode:lr-tb;fill:#4d4d4d;fill-opacity:1;fill-rule:nonzero;stroke:none"
         transform="matrix(1,0,0,-1,162.29297,34.53125)"><tspan
           id="tspan168"
           sodipodi:role="line"
           y="0"
           x="0 10.6752 110.6496 121.3248 221.29919 231.9744">303540</tspan></text><text
         id="text174"
         style="font-variant:normal;font-weight:normal;font-size:24px;font-family:Helvetica;-inkscape-font-specification:Helvetica;writing-mode:lr-tb;fill:#000000;fill-opacity:1;fill-rule:nonzero;stroke:none"
         transform="matrix(1,0,0,-1,206.95312,10.53125)"><tspan
           id="tspan172"
           sodipodi:role="line"
           y="0"
           x="0 13.344 26.688 33.335999 38.664001 45.312 58.655998 72">Latitude</tspan></text><text
         id="text178"
         style="font-variant:normal;font-weight:normal;font-size:24px;font-family:Helvetica;-inkscape-font-specification:Helvetica;writing-mode:lr-tb;fill:#000000;fill-opacity:1;fill-rule:nonzero;stroke:none"
         transform="matrix(0,1,1,0,22.699219,46.492188)"><tspan
           id="tspan176"
           sodipodi:role="line"
           y="0"
           x="0 17.327999 25.32 30.648001 37.296001 42.624001 54.624001 67.968002 73.295998 79.944 93.288002 106.632 119.976 126.624 139.968 153.312 166.65601 174.64799 179.976 193.32001 206.664 213.312 221.304 234.64799">Critical photoperiod (h)</tspan></text><g
         inkscape:export-ydpi="238.63814"
         inkscape:export-xdpi="238.63814"
         id="g817"><text
           transform="scale(1,-1)"
           style="font-variant:normal;font-weight:normal;font-size:18px;font-family:Helvetica;-inkscape-font-specification:Helvetica;writing-mode:lr-tb;fill:#000000;fill-opacity:1;fill-rule:nonzero;stroke:none"
           id="text202"
           x="347.26431"
           y="-129.41406"><tspan
             x="347.26431 356.86432"
             y="-129.41406"
             sodipodi:role="line"
             id="tspan198">JP, 2018</tspan><tspan
             sodipodi:role="line"
             id="tspan200"
             x="347.26431"
             y="-106.91406">JP, 2008</tspan></text><path
           inkscape:connector-curvature="0"
           id="path130-5"
           style="fill:#000000;fill-opacity:1;fill-rule:nonzero;stroke:#000000;stroke-width:1.41732;stroke-linecap:round;stroke-linejoin:round;stroke-miterlimit:10;stroke-dasharray:none;stroke-opacity:1"
           d="m 338.59592,136.41364 c 0,-6.633 -9.953,-6.633 -9.953,0 0,6.636 9.953,6.636 9.953,0" /><path
           inkscape:connector-curvature="0"
           id="path96-4"
           style="fill:#bebebe;fill-opacity:1;fill-rule:nonzero;stroke:#000000;stroke-width:1.41732;stroke-linecap:round;stroke-linejoin:round;stroke-miterlimit:10;stroke-dasharray:none;stroke-opacity:1"
           d="m 336.60039,92.065112 c 0,-6.636 -9.953,-6.636 -9.953,0 0,6.637 9.953,6.637 9.953,0" /><text
           y="-86.655479"
           x="341.86182"
           id="text202-1"
           style="font-variant:normal;font-weight:normal;font-size:18px;font-family:Helvetica;-inkscape-font-specification:Helvetica;writing-mode:lr-tb;fill:#000000;fill-opacity:1;fill-rule:nonzero;stroke:none;stroke-width:0.999998"
           transform="scale(1,-1)"><tspan
             id="tspan198-8"
             sodipodi:role="line"
             style="stroke-width:0.999998"
             x="341.86182"
             y="-86.655479">US, 2018</tspan><tspan
             y="-64.155479"
             x="341.86182"
             id="tspan200-8"
             sodipodi:role="line"
             style="stroke-width:0.999998">US, 2008</tspan></text><path
           inkscape:connector-curvature="0"
           id="path72-7"
           style="fill:#000000;fill-opacity:1;fill-rule:nonzero;stroke:#000000;stroke-width:1.41732;stroke-linecap:round;stroke-linejoin:round;stroke-miterlimit:10;stroke-dasharray:none;stroke-opacity:1"
           d="m 329.14265,118.20477 h 8.82 v -8.82 h -8.82 z" /><path
           inkscape:connector-curvature="0"
           id="path70-4"
           style="fill:#bebebe;fill-opacity:1;fill-rule:nonzero;stroke:#000000;stroke-width:1.41732;stroke-linecap:round;stroke-linejoin:round;stroke-miterlimit:10;stroke-dasharray:none;stroke-opacity:1"
           d="m 327.1149,75.701365 h 8.82 v -8.82 h -8.82 z" /><path
           inkscape:connector-curvature="0"
           id="path638"
           style="fill:none;stroke:#bebebe;stroke-width:3.20093;stroke-linecap:butt;stroke-linejoin:round;stroke-miterlimit:10;stroke-dasharray:none;stroke-opacity:1"
           d="m 307.27981,72.224892 h 13.825" /><path
           inkscape:connector-curvature="0"
           id="path632-9"
           style="fill:none;stroke:#000000;stroke-width:3.20093;stroke-linecap:butt;stroke-linejoin:round;stroke-miterlimit:10;stroke-dasharray:none;stroke-opacity:1"
           d="m 307.27981,114.81358 h 13.825" /><path
           inkscape:connector-curvature="0"
           id="path638-4"
           style="fill:none;stroke:#bebebe;stroke-width:3.20093;stroke-linecap:butt;stroke-linejoin:round;stroke-miterlimit:10;stroke-dasharray:none;stroke-opacity:1"
           d="m 288.95481,72.224892 h 13.825" /><path
           d="m 288.95481,114.81358 h 13.825"
           style="fill:none;stroke:#000000;stroke-width:3.20093;stroke-linecap:butt;stroke-linejoin:round;stroke-miterlimit:10;stroke-dasharray:none;stroke-opacity:1"
           id="path632-9-4"
           inkscape:connector-curvature="0" /><g
           id="g778"
           transform="translate(1.5)"><path
             d="m 289.39519,133.38461 h 14.79975"
             style="fill:none;stroke:#000000;stroke-width:3.31185;stroke-linecap:butt;stroke-linejoin:round;stroke-miterlimit:10;stroke-dasharray:none;stroke-opacity:1"
             id="path632-9-4-5"
             inkscape:connector-curvature="0" /><path
             inkscape:connector-curvature="0"
             id="path632-9-4-5-1"
             style="fill:none;stroke:#000000;stroke-width:3.31185;stroke-linecap:butt;stroke-linejoin:round;stroke-miterlimit:10;stroke-dasharray:none;stroke-opacity:1"
             d="m 304.19494,133.38461 h 14.79975" /></g><path
           d="m 304.20097,90.576924 h 13.825"
           style="fill:none;stroke:#bebebe;stroke-width:3.20093;stroke-linecap:butt;stroke-linejoin:round;stroke-miterlimit:10;stroke-dasharray:none;stroke-opacity:1"
           id="path638-3"
           inkscape:connector-curvature="0" /><path
           d="m 290.37597,90.576924 h 13.825"
           style="fill:none;stroke:#bebebe;stroke-width:3.20093;stroke-linecap:butt;stroke-linejoin:round;stroke-miterlimit:10;stroke-dasharray:none;stroke-opacity:1"
           id="path638-4-7"
           inkscape:connector-curvature="0" /></g></g></g></svg>
