<?xml version="1.0" encoding="UTF-8" standalone="no"?>
<svg
   xmlns:dc="http://purl.org/dc/elements/1.1/"
   xmlns:cc="http://creativecommons.org/ns#"
   xmlns:rdf="http://www.w3.org/1999/02/22-rdf-syntax-ns#"
   xmlns:svg="http://www.w3.org/2000/svg"
   xmlns="http://www.w3.org/2000/svg"
   xmlns:sodipodi="http://sodipodi.sourceforge.net/DTD/sodipodi-0.dtd"
   xmlns:inkscape="http://www.inkscape.org/namespaces/inkscape"
   inkscape:export-ydpi="96"
   inkscape:export-xdpi="96"
   inkscape:export-filename="/Users/sashamushegian/Documents/Georgetown/albopictus-cpp/figures/Fig4.png"
   version="1.1"
   id="svg833"
   xml:space="preserve"
   width="576"
   height="768"
   viewBox="0 0 576 768"
   sodipodi:docname="Fig4.2.svg"
   inkscape:version="1.0beta2 (2b71d25, 2019-12-03)"><metadata
     id="metadata839"><rdf:RDF><cc:Work
         rdf:about=""><dc:format>image/svg+xml</dc:format><dc:type
           rdf:resource="http://purl.org/dc/dcmitype/StillImage" /><dc:title /></cc:Work></rdf:RDF></metadata><defs
     id="defs837"><clipPath
       clipPathUnits="userSpaceOnUse"
       id="clipPath855"><path
         d="M 0,576 H 432 V 288 H 0 Z"
         id="path853"
         inkscape:connector-curvature="0" /></clipPath><clipPath
       clipPathUnits="userSpaceOnUse"
       id="clipPath989"><path
         d="M 0,288 H 432 V 0 H 0 Z"
         id="path987"
         inkscape:connector-curvature="0" /></clipPath></defs><sodipodi:namedview
     pagecolor="#ffffff"
     bordercolor="#666666"
     inkscape:document-rotation="0"
     borderopacity="1"
     objecttolerance="10"
     gridtolerance="10"
     guidetolerance="10"
     inkscape:pageopacity="0"
     inkscape:pageshadow="2"
     inkscape:window-width="1337"
     inkscape:window-height="791"
     id="namedview835"
     showgrid="false"
     inkscape:zoom="0.84244792"
     inkscape:cx="290.37403"
     inkscape:cy="4.4343765"
     inkscape:window-x="0"
     inkscape:window-y="23"
     inkscape:window-maximized="0"
     inkscape:current-layer="g851" /><g
     id="g841"
     inkscape:groupmode="layer"
     inkscape:label="Fig4"
     transform="matrix(1.3333333,0,0,-1.3333333,0,768)"><g
       id="g843"><path
         d="M 0,0 H 432 V 576 H 0 Z"
         style="fill:#ffffff;fill-opacity:1;fill-rule:nonzero;stroke:none"
         id="path845"
         inkscape:connector-curvature="0" /><path
         d="M 0,576 H 432 V 288 H 0 Z"
         style="fill:#ffffff;fill-opacity:1;fill-rule:nonzero;stroke:none"
         id="path847"
         inkscape:connector-curvature="0" /></g><g
       id="g849"><g
         id="g851"
         clip-path="url(#clipPath855)"><path
           d="M 0,576 H 432 V 288 H 0 Z"
           style="fill:none;stroke:#ffffff;stroke-width:1.06698;stroke-linecap:round;stroke-linejoin:round;stroke-miterlimit:10;stroke-dasharray:none;stroke-opacity:1"
           id="path857"
           inkscape:connector-curvature="0" /><path
           d="m 79.898,526.125 h 8.82 v -8.82 h -8.82 z"
           style="fill:#000000;fill-opacity:1;fill-rule:nonzero;stroke:#000000;stroke-width:1.41732;stroke-linecap:round;stroke-linejoin:round;stroke-miterlimit:10;stroke-dasharray:none;stroke-opacity:1"
           id="path859"
           inkscape:connector-curvature="0" /><path
           d="m 120.289,483.844 h 8.82 v -8.82 h -8.82 z"
           style="fill:#bebebe;fill-opacity:1;fill-rule:nonzero;stroke:#000000;stroke-width:1.41732;stroke-linecap:round;stroke-linejoin:round;stroke-miterlimit:10;stroke-dasharray:none;stroke-opacity:1"
           id="path861"
           inkscape:connector-curvature="0" /><path
           d="m 294.645,413.684 h 8.82 v -8.82 h -8.82 z"
           style="fill:#bebebe;fill-opacity:1;fill-rule:nonzero;stroke:#000000;stroke-width:1.41732;stroke-linecap:round;stroke-linejoin:round;stroke-miterlimit:10;stroke-dasharray:none;stroke-opacity:1"
           id="path863"
           inkscape:connector-curvature="0" /><path
           d="m 214.664,454.719 h 8.82 v -8.82 h -8.82 z"
           style="fill:#bebebe;fill-opacity:1;fill-rule:nonzero;stroke:#000000;stroke-width:1.41732;stroke-linecap:round;stroke-linejoin:round;stroke-miterlimit:10;stroke-dasharray:none;stroke-opacity:1"
           id="path865"
           inkscape:connector-curvature="0" /><path
           d="m 380.621,403.09 h 8.82 v -8.82 h -8.82 z"
           style="fill:#bebebe;fill-opacity:1;fill-rule:nonzero;stroke:#000000;stroke-width:1.41732;stroke-linecap:round;stroke-linejoin:round;stroke-miterlimit:10;stroke-dasharray:none;stroke-opacity:1"
           id="path867"
           inkscape:connector-curvature="0" /><path
           d="m 209.066,456.656 h 8.82 v -8.82 h -8.82 z"
           style="fill:#000000;fill-opacity:1;fill-rule:nonzero;stroke:#000000;stroke-width:1.41732;stroke-linecap:round;stroke-linejoin:round;stroke-miterlimit:10;stroke-dasharray:none;stroke-opacity:1"
           id="path869"
           inkscape:connector-curvature="0" /><path
           d="m 317.438,413.457 h 8.82 v -8.82 h -8.82 z"
           style="fill:#bebebe;fill-opacity:1;fill-rule:nonzero;stroke:#000000;stroke-width:1.41732;stroke-linecap:round;stroke-linejoin:round;stroke-miterlimit:10;stroke-dasharray:none;stroke-opacity:1"
           id="path871"
           inkscape:connector-curvature="0" /><path
           d="m 237.059,474.891 h 8.82 v -8.82 h -8.82 z"
           style="fill:#000000;fill-opacity:1;fill-rule:nonzero;stroke:#000000;stroke-width:1.41732;stroke-linecap:round;stroke-linejoin:round;stroke-miterlimit:10;stroke-dasharray:none;stroke-opacity:1"
           id="path873"
           inkscape:connector-curvature="0" /><path
           d="m 115.492,484.742 h 8.82 v -8.82 h -8.82 z"
           style="fill:#000000;fill-opacity:1;fill-rule:nonzero;stroke:#000000;stroke-width:1.41732;stroke-linecap:round;stroke-linejoin:round;stroke-miterlimit:10;stroke-dasharray:none;stroke-opacity:1"
           id="path875"
           inkscape:connector-curvature="0" /><path
           d="m 142.684,484.316 h 8.82 v -8.82 h -8.82 z"
           style="fill:#bebebe;fill-opacity:1;fill-rule:nonzero;stroke:#000000;stroke-width:1.41732;stroke-linecap:round;stroke-linejoin:round;stroke-miterlimit:10;stroke-dasharray:none;stroke-opacity:1"
           id="path877"
           inkscape:connector-curvature="0" /><path
           d="m 113.492,525.875 h 8.82 v -8.82 h -8.82 z"
           style="fill:#bebebe;fill-opacity:1;fill-rule:nonzero;stroke:#000000;stroke-width:1.41732;stroke-linecap:round;stroke-linejoin:round;stroke-miterlimit:10;stroke-dasharray:none;stroke-opacity:1"
           id="path879"
           inkscape:connector-curvature="0" /><path
           d="m 189.871,455.73 h 8.82 v -8.82 h -8.82 z"
           style="fill:#bebebe;fill-opacity:1;fill-rule:nonzero;stroke:#000000;stroke-width:1.41732;stroke-linecap:round;stroke-linejoin:round;stroke-miterlimit:10;stroke-dasharray:none;stroke-opacity:1"
           id="path881"
           inkscape:connector-curvature="0" /><path
           d="m 365.426,377.277 h 8.82 v -8.82 h -8.82 z"
           style="fill:#bebebe;fill-opacity:1;fill-rule:nonzero;stroke:#000000;stroke-width:1.41732;stroke-linecap:round;stroke-linejoin:round;stroke-miterlimit:10;stroke-dasharray:none;stroke-opacity:1"
           id="path883"
           inkscape:connector-curvature="0" /><path
           d="m 405.812,437.109 h 8.82 v -8.82 h -8.82 z"
           style="fill:#000000;fill-opacity:1;fill-rule:nonzero;stroke:#000000;stroke-width:1.41732;stroke-linecap:round;stroke-linejoin:round;stroke-miterlimit:10;stroke-dasharray:none;stroke-opacity:1"
           id="path885"
           inkscape:connector-curvature="0" /><path
           d="m 125.488,512.059 h 8.82 v -8.82 h -8.82 z"
           style="fill:#000000;fill-opacity:1;fill-rule:nonzero;stroke:#000000;stroke-width:1.41732;stroke-linecap:round;stroke-linejoin:round;stroke-miterlimit:10;stroke-dasharray:none;stroke-opacity:1"
           id="path887"
           inkscape:connector-curvature="0" /><path
           d="m 185.07,458.008 h 8.82 v -8.82 h -8.82 z"
           style="fill:#000000;fill-opacity:1;fill-rule:nonzero;stroke:#000000;stroke-width:1.41732;stroke-linecap:round;stroke-linejoin:round;stroke-miterlimit:10;stroke-dasharray:none;stroke-opacity:1"
           id="path889"
           inkscape:connector-curvature="0" /><path
           d="m 331.434,410.68 h 8.82 v -8.82 h -8.82 z"
           style="fill:#000000;fill-opacity:1;fill-rule:nonzero;stroke:#000000;stroke-width:1.41732;stroke-linecap:round;stroke-linejoin:round;stroke-miterlimit:10;stroke-dasharray:none;stroke-opacity:1"
           id="path891"
           inkscape:connector-curvature="0" /><path
           d="m 199.469,471.719 h 8.82 v -8.82 h -8.82 z"
           style="fill:#000000;fill-opacity:1;fill-rule:nonzero;stroke:#000000;stroke-width:1.41732;stroke-linecap:round;stroke-linejoin:round;stroke-miterlimit:10;stroke-dasharray:none;stroke-opacity:1"
           id="path893"
           inkscape:connector-curvature="0" /><path
           d="m 101.496,504.504 h 8.82 v -8.82 h -8.82 z"
           style="fill:#000000;fill-opacity:1;fill-rule:nonzero;stroke:#000000;stroke-width:1.41732;stroke-linecap:round;stroke-linejoin:round;stroke-miterlimit:10;stroke-dasharray:none;stroke-opacity:1"
           id="path895"
           inkscape:connector-curvature="0" /><path
           d="m 188.27,489.164 h 8.82 v -8.82 h -8.82 z"
           style="fill:#bebebe;fill-opacity:1;fill-rule:nonzero;stroke:#000000;stroke-width:1.41732;stroke-linecap:round;stroke-linejoin:round;stroke-miterlimit:10;stroke-dasharray:none;stroke-opacity:1"
           id="path897"
           inkscape:connector-curvature="0" /><path
           d="m 237.859,450.625 h 8.82 v -8.82 h -8.82 z"
           style="fill:#bebebe;fill-opacity:1;fill-rule:nonzero;stroke:#000000;stroke-width:1.41732;stroke-linecap:round;stroke-linejoin:round;stroke-miterlimit:10;stroke-dasharray:none;stroke-opacity:1"
           id="path899"
           inkscape:connector-curvature="0" /><path
           d="m 84.309,504.219 4.129,-1.211 8.25,-2.422 4.124,-1.215 16.5,-4.844 4.129,-1.211 16.5,-4.843 4.125,-1.215 8.25,-2.422 4.129,-1.211 24.75,-7.266 4.125,-1.214 4.129,-1.211 24.75,-7.266 4.129,-1.211 4.125,-1.215 24.75,-7.265 4.129,-1.211 8.25,-2.422 4.125,-1.215 16.5,-4.844 4.129,-1.211 16.5,-4.844 4.125,-1.214 8.25,-2.422 4.129,-1.211 20.625,-6.055 4.125,-1.215 4.125,-1.211 4.129,-1.211 24.75,-7.265 4.129,-1.211 4.125,-1.215 24.75,-7.266 4.129,-1.211"
           style="fill:none;stroke:#000000;stroke-width:2.13396;stroke-linecap:butt;stroke-linejoin:round;stroke-miterlimit:10;stroke-dasharray:14.9377, 6.40187;stroke-dashoffset:0;stroke-opacity:1"
           id="path901"
           inkscape:connector-curvature="0" /><path
           d="m 117.902,499.109 3.379,-1.507 6.766,-3.016 3.379,-1.508 3.383,-1.504 3.382,-1.508 3.379,-1.507 3.383,-1.508 3.379,-1.508 3.383,-1.508 3.383,-1.504 3.379,-1.508 6.765,-3.015 3.379,-1.508 3.383,-1.504 3.383,-1.508 3.379,-1.508 3.382,-1.507 3.379,-1.508 3.383,-1.504 3.383,-1.508 3.379,-1.508 6.766,-3.015 3.378,-1.504 6.766,-3.016 3.379,-1.508 3.383,-1.507 3.379,-1.504 6.765,-3.016 3.379,-1.508 6.766,-3.015 3.379,-1.504 6.765,-3.016 3.379,-1.508 3.383,-1.508 3.379,-1.504 6.766,-3.015 3.378,-1.508 3.383,-1.508 3.383,-1.504 3.379,-1.507 6.766,-3.016 3.379,-1.508 3.382,-1.504 3.379,-1.508 6.766,-3.015 3.379,-1.508 3.383,-1.504 3.382,-1.508 3.379,-1.508 6.766,-3.015 3.379,-1.508 3.383,-1.504 3.379,-1.508 6.765,-3.015 3.379,-1.508 3.383,-1.504 3.383,-1.508 3.379,-1.508 6.765,-3.015 3.379,-1.504 3.383,-1.508 3.379,-1.508 6.766,-3.016 3.378,-1.503 3.383,-1.508"
           style="fill:none;stroke:#bebebe;stroke-width:2.13396;stroke-linecap:butt;stroke-linejoin:round;stroke-miterlimit:10;stroke-dasharray:14.9377, 6.40187;stroke-dashoffset:0;stroke-opacity:1"
           id="path903"
           inkscape:connector-curvature="0" /><path
           d="M 68.016,362.117 V 570.52"
           style="fill:none;stroke:#000000;stroke-width:1.06698;stroke-linecap:butt;stroke-linejoin:round;stroke-miterlimit:10;stroke-dasharray:none;stroke-opacity:1"
           id="path905"
           inkscape:connector-curvature="0" /><text
           transform="matrix(1,0,0,-1,28.839844,385.21875)"
           style="font-variant:normal;font-weight:normal;font-size:17.6px;font-family:Helvetica;-inkscape-font-specification:Helvetica;writing-mode:lr-tb;fill:#4d4d4d;fill-opacity:1;fill-rule:nonzero;stroke:none"
           id="text915"><tspan
             x="0 9.7855997 19.571199 24.4464"
             y="0"
             sodipodi:role="line"
             id="tspan907">12.5</tspan><tspan
             x="0 9.7855997 19.571199 24.4464"
             y="-49.859375"
             sodipodi:role="line"
             id="tspan909">13.0</tspan><tspan
             x="0 9.7855997 19.571199 24.4464"
             y="-99.714844"
             sodipodi:role="line"
             id="tspan911">13.5</tspan><tspan
             x="0 9.7855997 19.571199 24.4464"
             y="-149.57422"
             sodipodi:role="line"
             id="tspan913">14.0</tspan></text><path
           d="m 65.273,391.531 h 2.743"
           style="fill:none;stroke:#333333;stroke-width:1.06698;stroke-linecap:butt;stroke-linejoin:round;stroke-miterlimit:10;stroke-dasharray:none;stroke-opacity:1"
           id="path917"
           inkscape:connector-curvature="0" /><path
           d="m 65.273,441.391 h 2.743"
           style="fill:none;stroke:#333333;stroke-width:1.06698;stroke-linecap:butt;stroke-linejoin:round;stroke-miterlimit:10;stroke-dasharray:none;stroke-opacity:1"
           id="path919"
           inkscape:connector-curvature="0" /><path
           d="m 65.273,491.246 h 2.743"
           style="fill:none;stroke:#333333;stroke-width:1.06698;stroke-linecap:butt;stroke-linejoin:round;stroke-miterlimit:10;stroke-dasharray:none;stroke-opacity:1"
           id="path921"
           inkscape:connector-curvature="0" /><path
           d="m 65.273,541.105 h 2.743"
           style="fill:none;stroke:#333333;stroke-width:1.06698;stroke-linecap:butt;stroke-linejoin:round;stroke-miterlimit:10;stroke-dasharray:none;stroke-opacity:1"
           id="path923"
           inkscape:connector-curvature="0" /><path
           d="M 68.016,362.117 H 426.52"
           style="fill:none;stroke:#000000;stroke-width:1.06698;stroke-linecap:butt;stroke-linejoin:round;stroke-miterlimit:10;stroke-dasharray:none;stroke-opacity:1"
           id="path925"
           inkscape:connector-curvature="0" /><path
           d="m 86.309,359.379 v 2.738"
           style="fill:none;stroke:#333333;stroke-width:1.06698;stroke-linecap:butt;stroke-linejoin:round;stroke-miterlimit:10;stroke-dasharray:none;stroke-opacity:1"
           id="path927"
           inkscape:connector-curvature="0" /><path
           d="m 166.289,359.379 v 2.738"
           style="fill:none;stroke:#333333;stroke-width:1.06698;stroke-linecap:butt;stroke-linejoin:round;stroke-miterlimit:10;stroke-dasharray:none;stroke-opacity:1"
           id="path929"
           inkscape:connector-curvature="0" /><path
           d="m 246.27,359.379 v 2.738"
           style="fill:none;stroke:#333333;stroke-width:1.06698;stroke-linecap:butt;stroke-linejoin:round;stroke-miterlimit:10;stroke-dasharray:none;stroke-opacity:1"
           id="path931"
           inkscape:connector-curvature="0" /><path
           d="m 326.246,359.379 v 2.738"
           style="fill:none;stroke:#333333;stroke-width:1.06698;stroke-linecap:butt;stroke-linejoin:round;stroke-miterlimit:10;stroke-dasharray:none;stroke-opacity:1"
           id="path933"
           inkscape:connector-curvature="0" /><path
           d="m 406.227,359.379 v 2.738"
           style="fill:none;stroke:#333333;stroke-width:1.06698;stroke-linecap:butt;stroke-linejoin:round;stroke-miterlimit:10;stroke-dasharray:none;stroke-opacity:1"
           id="path935"
           inkscape:connector-curvature="0" /><text
           transform="matrix(1,0,0,-1,71.632812,344.55859)"
           style="font-variant:normal;font-weight:normal;font-size:17.6px;font-family:Helvetica;-inkscape-font-specification:Helvetica;writing-mode:lr-tb;fill:#4d4d4d;fill-opacity:1;fill-rule:nonzero;stroke:none"
           id="text939"><tspan
             x="0 9.7855997 19.571199 79.974403 89.760002 99.545601 159.94881 169.73441 179.52 239.90559 249.69119 259.47681 319.91797 329.70355 339.48917"
             y="0"
             sodipodi:role="line"
             id="tspan937">240260280300320</tspan></text><text
           transform="matrix(1,0,0,-1,88.882812,322.07812)"
           style="font-variant:normal;font-weight:normal;font-size:22px;font-family:Helvetica;-inkscape-font-specification:Helvetica;writing-mode:lr-tb;fill:#000000;fill-opacity:1;fill-rule:nonzero;stroke:none"
           id="text945"><tspan
             x="0 18.326 30.558001 42.790001 55.021999 61.116001 78.209999 94.094002 109.978 116.072 128.304 140.536 152.76801 165 169.884 174.76801 187 199.23199 205.326 217.558 229.78999 242.022 254.254 261.57999 273.81201 286.04401 298.276 310.508"
             y="0"
             sodipodi:role="line"
             id="tspan941">Mean GDD deadline 1998-2007 </tspan><tspan
             x="97.24218 104.56818 116.80018 124.12617 136.35818 141.24217 153.47418 165.70618 170.59018 176.68417 188.91618 201.14818 212.14818"
             y="23.757822"
             sodipodi:role="line"
             id="tspan943">(ordinal day)</tspan></text><text
           transform="matrix(0,1,1,0,21.261719,396.62109)"
           style="font-variant:normal;font-weight:normal;font-size:22px;font-family:Helvetica;-inkscape-font-specification:Helvetica;writing-mode:lr-tb;fill:#000000;fill-opacity:1;fill-rule:nonzero;stroke:none"
           id="text949"><tspan
             x="0 15.884 30.535999 45.188 51.282001 57.375999 69.608002 81.839996 94.071999 106.304 112.398 119.724 131.95599"
             y="0"
             sodipodi:role="line"
             id="tspan947">CPP, 2008 (h)</tspan></text><text
           transform="matrix(1,0,0,-1,5.054688,560.88281)"
           style="font-variant:normal;font-weight:bold;font-size:14px;font-family:Helvetica;-inkscape-font-specification:Helvetica-Bold;writing-mode:lr-tb;fill:#000000;fill-opacity:1;fill-rule:nonzero;stroke:none"
           id="text977"><tspan
             x="0"
             y="0"
             id="tspan975">A</tspan></text></g></g><g
       id="g979"><path
         d="M 0,288 H 432 V 0 H 0 Z"
         style="fill:#ffffff;fill-opacity:1;fill-rule:nonzero;stroke:none"
         id="path981"
         inkscape:connector-curvature="0" /></g><g
       id="g983"><g
         id="g985"
         clip-path="url(#clipPath989)"><path
           d="M 0,288 H 432 V 0 H 0 Z"
           style="fill:none;stroke:#ffffff;stroke-width:1.06698;stroke-linecap:round;stroke-linejoin:round;stroke-miterlimit:10;stroke-dasharray:none;stroke-opacity:1"
           id="path991"
           inkscape:connector-curvature="0" /><path
           d="m 99.348,213.234 c 0,-6.636 -9.953,-6.636 -9.953,0 0,6.637 9.953,6.637 9.953,0"
           style="fill:#bebebe;fill-opacity:1;fill-rule:nonzero;stroke:#000000;stroke-width:1.41732;stroke-linecap:round;stroke-linejoin:round;stroke-miterlimit:10;stroke-dasharray:none;stroke-opacity:1"
           id="path993"
           inkscape:connector-curvature="0" /><path
           d="m 289.211,152.5 c 0,-6.633 -9.953,-6.633 -9.953,0 0,6.637 9.953,6.637 9.953,0"
           style="fill:#bebebe;fill-opacity:1;fill-rule:nonzero;stroke:#000000;stroke-width:1.41732;stroke-linecap:round;stroke-linejoin:round;stroke-miterlimit:10;stroke-dasharray:none;stroke-opacity:1"
           id="path995"
           inkscape:connector-curvature="0" /><path
           d="m 195.156,189.547 c 0,-6.637 -9.953,-6.637 -9.953,0 0,6.637 9.953,6.637 9.953,0"
           style="fill:#bebebe;fill-opacity:1;fill-rule:nonzero;stroke:#000000;stroke-width:1.41732;stroke-linecap:round;stroke-linejoin:round;stroke-miterlimit:10;stroke-dasharray:none;stroke-opacity:1"
           id="path997"
           inkscape:connector-curvature="0" /><path
           d="m 388.516,105.316 c 0,-6.632 -9.954,-6.632 -9.954,0 0,6.637 9.954,6.637 9.954,0"
           style="fill:#bebebe;fill-opacity:1;fill-rule:nonzero;stroke:#000000;stroke-width:1.41732;stroke-linecap:round;stroke-linejoin:round;stroke-miterlimit:10;stroke-dasharray:none;stroke-opacity:1"
           id="path999"
           inkscape:connector-curvature="0" /><path
           d="m 324.207,138.758 c 0,-6.637 -9.953,-6.637 -9.953,0 0,6.633 9.953,6.633 9.953,0"
           style="fill:#bebebe;fill-opacity:1;fill-rule:nonzero;stroke:#000000;stroke-width:1.41732;stroke-linecap:round;stroke-linejoin:round;stroke-miterlimit:10;stroke-dasharray:none;stroke-opacity:1"
           id="path1001"
           inkscape:connector-curvature="0" /><path
           d="m 217.465,199.145 c 0,-6.637 -9.953,-6.637 -9.953,0 0,6.636 9.953,6.636 9.953,0"
           style="fill:#000000;fill-opacity:1;fill-rule:nonzero;stroke:#000000;stroke-width:1.41732;stroke-linecap:round;stroke-linejoin:round;stroke-miterlimit:10;stroke-dasharray:none;stroke-opacity:1"
           id="path1003"
           inkscape:connector-curvature="0" /><path
           d="m 105.473,229.605 c 0,-6.636 -9.953,-6.636 -9.953,0 0,6.633 9.953,6.633 9.953,0"
           style="fill:#000000;fill-opacity:1;fill-rule:nonzero;stroke:#000000;stroke-width:1.41732;stroke-linecap:round;stroke-linejoin:round;stroke-miterlimit:10;stroke-dasharray:none;stroke-opacity:1"
           id="path1005"
           inkscape:connector-curvature="0" /><path
           d="m 162.781,204.602 c 0,-6.637 -9.953,-6.637 -9.953,0 0,6.632 9.953,6.632 9.953,0"
           style="fill:#000000;fill-opacity:1;fill-rule:nonzero;stroke:#000000;stroke-width:1.41732;stroke-linecap:round;stroke-linejoin:round;stroke-miterlimit:10;stroke-dasharray:none;stroke-opacity:1"
           id="path1007"
           inkscape:connector-curvature="0" /><path
           d="m 120.348,215.945 c 0,-6.636 -9.953,-6.636 -9.953,0 0,6.637 9.953,6.637 9.953,0"
           style="fill:#bebebe;fill-opacity:1;fill-rule:nonzero;stroke:#000000;stroke-width:1.41732;stroke-linecap:round;stroke-linejoin:round;stroke-miterlimit:10;stroke-dasharray:none;stroke-opacity:1"
           id="path1009"
           inkscape:connector-curvature="0" /><path
           d="m 89.285,237.605 c 0,-6.636 -9.953,-6.636 -9.953,0 0,6.633 9.953,6.633 9.953,0"
           style="fill:#bebebe;fill-opacity:1;fill-rule:nonzero;stroke:#000000;stroke-width:1.41732;stroke-linecap:round;stroke-linejoin:round;stroke-miterlimit:10;stroke-dasharray:none;stroke-opacity:1"
           id="path1011"
           inkscape:connector-curvature="0" /><path
           d="m 113.785,238.113 c 0,-6.636 -9.953,-6.636 -9.953,0 0,6.637 9.953,6.637 9.953,0"
           style="fill:#000000;fill-opacity:1;fill-rule:nonzero;stroke:#000000;stroke-width:1.41732;stroke-linecap:round;stroke-linejoin:round;stroke-miterlimit:10;stroke-dasharray:none;stroke-opacity:1"
           id="path1013"
           inkscape:connector-curvature="0" /><path
           d="m 160.156,213.48 c 0,-6.636 -9.953,-6.636 -9.953,0 0,6.637 9.953,6.637 9.953,0"
           style="fill:#bebebe;fill-opacity:1;fill-rule:nonzero;stroke:#000000;stroke-width:1.41732;stroke-linecap:round;stroke-linejoin:round;stroke-miterlimit:10;stroke-dasharray:none;stroke-opacity:1"
           id="path1015"
           inkscape:connector-curvature="0" /><path
           d="m 372.766,104.945 c 0,-6.636 -9.954,-6.636 -9.954,0 0,6.633 9.954,6.633 9.954,0"
           style="fill:#bebebe;fill-opacity:1;fill-rule:nonzero;stroke:#000000;stroke-width:1.41732;stroke-linecap:round;stroke-linejoin:round;stroke-miterlimit:10;stroke-dasharray:none;stroke-opacity:1"
           id="path1017"
           inkscape:connector-curvature="0" /><path
           d="m 399.453,125.805 c 0,-6.633 -9.953,-6.633 -9.953,0 0,6.636 9.953,6.636 9.953,0"
           style="fill:#000000;fill-opacity:1;fill-rule:nonzero;stroke:#000000;stroke-width:1.41732;stroke-linecap:round;stroke-linejoin:round;stroke-miterlimit:10;stroke-dasharray:none;stroke-opacity:1"
           id="path1019"
           inkscape:connector-curvature="0" /><path
           d="m 415.203,87.355 c 0,-6.632 -9.953,-6.632 -9.953,0 0,6.637 9.953,6.637 9.953,0"
           style="fill:#bebebe;fill-opacity:1;fill-rule:nonzero;stroke:#000000;stroke-width:1.41732;stroke-linecap:round;stroke-linejoin:round;stroke-miterlimit:10;stroke-dasharray:none;stroke-opacity:1"
           id="path1021"
           inkscape:connector-curvature="0" /><path
           d="m 185.531,196.555 c 0,-6.637 -9.953,-6.637 -9.953,0 0,6.633 9.953,6.633 9.953,0"
           style="fill:#000000;fill-opacity:1;fill-rule:nonzero;stroke:#000000;stroke-width:1.41732;stroke-linecap:round;stroke-linejoin:round;stroke-miterlimit:10;stroke-dasharray:none;stroke-opacity:1"
           id="path1023"
           inkscape:connector-curvature="0" /><path
           d="m 94.535,254.559 c 0,-6.637 -9.953,-6.637 -9.953,0 0,6.636 9.953,6.636 9.953,0"
           style="fill:#000000;fill-opacity:1;fill-rule:nonzero;stroke:#000000;stroke-width:1.41732;stroke-linecap:round;stroke-linejoin:round;stroke-miterlimit:10;stroke-dasharray:none;stroke-opacity:1"
           id="path1025"
           inkscape:connector-curvature="0" /><path
           d="m 152.281,219.438 c 0,-6.637 -9.953,-6.637 -9.953,0 0,6.632 9.953,6.632 9.953,0"
           style="fill:#000000;fill-opacity:1;fill-rule:nonzero;stroke:#000000;stroke-width:1.41732;stroke-linecap:round;stroke-linejoin:round;stroke-miterlimit:10;stroke-dasharray:none;stroke-opacity:1"
           id="path1027"
           inkscape:connector-curvature="0" /><path
           d="m 168.906,221.402 c 0,-6.632 -9.953,-6.632 -9.953,0 0,6.637 9.953,6.637 9.953,0"
           style="fill:#bebebe;fill-opacity:1;fill-rule:nonzero;stroke:#000000;stroke-width:1.41732;stroke-linecap:round;stroke-linejoin:round;stroke-miterlimit:10;stroke-dasharray:none;stroke-opacity:1"
           id="path1029"
           inkscape:connector-curvature="0" /><path
           d="m 151.406,205.992 c 0,-6.633 -9.953,-6.633 -9.953,0 0,6.637 9.953,6.637 9.953,0"
           style="fill:#000000;fill-opacity:1;fill-rule:nonzero;stroke:#000000;stroke-width:1.41732;stroke-linecap:round;stroke-linejoin:round;stroke-miterlimit:10;stroke-dasharray:none;stroke-opacity:1"
           id="path1031"
           inkscape:connector-curvature="0" /><path
           d="m 171.969,174.285 c 0,-6.633 -9.953,-6.633 -9.953,0 0,6.637 9.953,6.637 9.953,0"
           style="fill:#000000;fill-opacity:1;fill-rule:nonzero;stroke:#000000;stroke-width:1.41732;stroke-linecap:round;stroke-linejoin:round;stroke-miterlimit:10;stroke-dasharray:none;stroke-opacity:1"
           id="path1033"
           inkscape:connector-curvature="0" /><path
           d="m 224.465,170.137 c 0,-6.633 -9.953,-6.633 -9.953,0 0,6.636 9.953,6.636 9.953,0"
           style="fill:#bebebe;fill-opacity:1;fill-rule:nonzero;stroke:#000000;stroke-width:1.41732;stroke-linecap:round;stroke-linejoin:round;stroke-miterlimit:10;stroke-dasharray:none;stroke-opacity:1"
           id="path1035"
           inkscape:connector-curvature="0" /><path
           d="m 89.559,235.602 7.718,-2.938 3.864,-1.469 23.156,-8.812 3.859,-1.465 15.438,-5.875 3.863,-1.469 27.016,-10.281 3.859,-1.465 11.578,-4.406 3.863,-1.469 27.016,-10.281 3.859,-1.465 11.579,-4.406 3.863,-1.469 30.875,-11.75 3.859,-1.465 7.719,-2.937 3.863,-1.469 34.735,-13.219 3.859,-1.465 3.859,-1.468 3.864,-1.469 38.593,-14.688 3.86,-1.464 3.863,-1.469 15.438,-5.875"
           style="fill:none;stroke:#000000;stroke-width:2.13396;stroke-linecap:butt;stroke-linejoin:round;stroke-miterlimit:10;stroke-dasharray:none;stroke-opacity:1"
           id="path1037"
           inkscape:connector-curvature="0" /><path
           d="m 84.309,235.809 4.129,-1.813 4.124,-1.808 4.126,-1.813 4.124,-1.809 4.126,-1.812 4.124,-1.809 4.126,-1.812 4.124,-1.809 4.129,-1.812 4.125,-1.809 4.125,-1.812 4.125,-1.809 4.125,-1.812 4.125,-1.809 4.125,-1.813 4.125,-1.808 4.129,-1.813 4.125,-1.808 4.125,-1.813 4.125,-1.808 4.125,-1.813 4.125,-1.808 4.125,-1.813 4.125,-1.809 4.129,-1.808 4.125,-1.813 4.125,-1.808 4.125,-1.813 4.125,-1.808 4.125,-1.813 4.125,-1.808 4.129,-1.813 4.125,-1.809 4.125,-1.812 4.125,-1.809 4.125,-1.812 4.125,-1.809 4.125,-1.812 4.125,-1.809 4.129,-1.812 4.125,-1.809 4.125,-1.812 4.125,-1.809 4.125,-1.812 4.125,-1.809 4.125,-1.813 4.125,-1.808 4.129,-1.813 4.125,-1.808 4.125,-1.813 4.125,-1.808 4.125,-1.813 8.25,-3.617 4.125,-1.813 4.129,-1.808 4.125,-1.813 4.125,-1.808 4.125,-1.813 4.125,-1.808 4.125,-1.813 4.125,-1.808 4.125,-1.813 4.129,-1.808 4.125,-1.813 4.125,-1.809 4.125,-1.812 4.125,-1.809 4.125,-1.812 4.125,-1.809 4.129,-1.812 4.125,-1.809 4.125,-1.812 4.125,-1.809 4.125,-1.812 4.125,-1.809 4.125,-1.813 4.125,-1.808 4.129,-1.813"
           style="fill:none;stroke:#bebebe;stroke-width:2.13396;stroke-linecap:butt;stroke-linejoin:round;stroke-miterlimit:10;stroke-dasharray:none;stroke-opacity:1"
           id="path1039"
           inkscape:connector-curvature="0" /><path
           d="M 68.016,74.117 V 282.52"
           style="fill:none;stroke:#000000;stroke-width:1.06698;stroke-linecap:butt;stroke-linejoin:round;stroke-miterlimit:10;stroke-dasharray:none;stroke-opacity:1"
           id="path1041"
           inkscape:connector-curvature="0" /><text
           transform="matrix(1,0,0,-1,28.839844,97.21875)"
           style="font-variant:normal;font-weight:normal;font-size:17.6px;font-family:Helvetica;-inkscape-font-specification:Helvetica;writing-mode:lr-tb;fill:#4d4d4d;fill-opacity:1;fill-rule:nonzero;stroke:none"
           id="text1051"><tspan
             x="0 9.7855997 19.571199 24.4464"
             y="0"
             sodipodi:role="line"
             id="tspan1043">12.5</tspan><tspan
             x="0 9.7855997 19.571199 24.4464"
             y="-49.859375"
             sodipodi:role="line"
             id="tspan1045">13.0</tspan><tspan
             x="0 9.7855997 19.571199 24.4464"
             y="-99.714844"
             sodipodi:role="line"
             id="tspan1047">13.5</tspan><tspan
             x="0 9.7855997 19.571199 24.4464"
             y="-149.57422"
             sodipodi:role="line"
             id="tspan1049">14.0</tspan></text><path
           d="m 65.273,103.531 h 2.743"
           style="fill:none;stroke:#333333;stroke-width:1.06698;stroke-linecap:butt;stroke-linejoin:round;stroke-miterlimit:10;stroke-dasharray:none;stroke-opacity:1"
           id="path1053"
           inkscape:connector-curvature="0" /><path
           d="m 65.273,153.391 h 2.743"
           style="fill:none;stroke:#333333;stroke-width:1.06698;stroke-linecap:butt;stroke-linejoin:round;stroke-miterlimit:10;stroke-dasharray:none;stroke-opacity:1"
           id="path1055"
           inkscape:connector-curvature="0" /><path
           d="m 65.273,203.246 h 2.743"
           style="fill:none;stroke:#333333;stroke-width:1.06698;stroke-linecap:butt;stroke-linejoin:round;stroke-miterlimit:10;stroke-dasharray:none;stroke-opacity:1"
           id="path1057"
           inkscape:connector-curvature="0" /><path
           d="m 65.273,253.105 h 2.743"
           style="fill:none;stroke:#333333;stroke-width:1.06698;stroke-linecap:butt;stroke-linejoin:round;stroke-miterlimit:10;stroke-dasharray:none;stroke-opacity:1"
           id="path1059"
           inkscape:connector-curvature="0" /><path
           d="M 68.016,74.117 H 426.52"
           style="fill:none;stroke:#000000;stroke-width:1.06698;stroke-linecap:butt;stroke-linejoin:round;stroke-miterlimit:10;stroke-dasharray:none;stroke-opacity:1"
           id="path1061"
           inkscape:connector-curvature="0" /><path
           d="m 135.492,71.379 v 2.738"
           style="fill:none;stroke:#333333;stroke-width:1.06698;stroke-linecap:butt;stroke-linejoin:round;stroke-miterlimit:10;stroke-dasharray:none;stroke-opacity:1"
           id="path1063"
           inkscape:connector-curvature="0" /><path
           d="m 222.988,71.379 v 2.738"
           style="fill:none;stroke:#333333;stroke-width:1.06698;stroke-linecap:butt;stroke-linejoin:round;stroke-miterlimit:10;stroke-dasharray:none;stroke-opacity:1"
           id="path1065"
           inkscape:connector-curvature="0" /><path
           d="m 310.48,71.379 v 2.738"
           style="fill:none;stroke:#333333;stroke-width:1.06698;stroke-linecap:butt;stroke-linejoin:round;stroke-miterlimit:10;stroke-dasharray:none;stroke-opacity:1"
           id="path1067"
           inkscape:connector-curvature="0" /><path
           d="m 397.977,71.379 v 2.738"
           style="fill:none;stroke:#333333;stroke-width:1.06698;stroke-linecap:butt;stroke-linejoin:round;stroke-miterlimit:10;stroke-dasharray:none;stroke-opacity:1"
           id="path1069"
           inkscape:connector-curvature="0" /><text
           transform="matrix(1,0,0,-1,120.81641,56.558594)"
           style="font-variant:normal;font-weight:normal;font-size:17.6px;font-family:Helvetica;-inkscape-font-specification:Helvetica;writing-mode:lr-tb;fill:#4d4d4d;fill-opacity:1;fill-rule:nonzero;stroke:none"
           id="text1073"><tspan
             x="0 9.7855997 19.571199 87.489601 97.2752 107.0608 174.9792 184.7648 194.5504 262.46881 272.25439 282.04001"
             y="0"
             sodipodi:role="line"
             id="tspan1071">260280300320</tspan></text><text
           transform="matrix(1,0,0,-1,88.882812,34.078125)"
           style="font-variant:normal;font-weight:normal;font-size:22px;font-family:Helvetica;-inkscape-font-specification:Helvetica;writing-mode:lr-tb;fill:#000000;fill-opacity:1;fill-rule:nonzero;stroke:none"
           id="text1079"><tspan
             x="0 18.326 30.558001 42.790001 55.021999 61.116001 78.209999 94.094002 109.978 116.072 128.304 140.536 152.76801 165 169.884 174.76801 187 199.23199 205.326 217.558 229.78999 242.022 254.254 261.57999 273.81201 286.04401 298.276 310.508"
             y="0"
             sodipodi:role="line"
             id="tspan1075">Mean GDD deadline 2008-2017 </tspan><tspan
             x="97.24218 104.56818 116.80018 124.12617 136.35818 141.24217 153.47418 165.70618 170.59018 176.68417 188.91618 201.14818 212.14818"
             y="23.757822"
             sodipodi:role="line"
             id="tspan1077">(ordinal day)</tspan></text><text
           transform="matrix(0,1,1,0,21.261719,108.62109)"
           style="font-variant:normal;font-weight:normal;font-size:22px;font-family:Helvetica;-inkscape-font-specification:Helvetica;writing-mode:lr-tb;fill:#000000;fill-opacity:1;fill-rule:nonzero;stroke:none"
           id="text1083"><tspan
             x="0 15.884 30.535999 45.188 51.282001 57.375999 69.608002 81.839996 94.071999 106.304 112.398 119.724 131.95599"
             y="0"
             sodipodi:role="line"
             id="tspan1081">CPP, 2018 (h)</tspan></text><path
           d="m 113.32,164.773 h 88.641 V 87.66 H 113.32 Z"
           style="fill:#ffffff;fill-opacity:1;fill-rule:nonzero;stroke:none"
           id="path1085"
           inkscape:connector-curvature="0" /><text
           transform="matrix(1,0,0,-1,5.054688,272.88281)"
           style="font-variant:normal;font-weight:bold;font-size:14px;font-family:Helvetica;-inkscape-font-specification:Helvetica-Bold;writing-mode:lr-tb;fill:#000000;fill-opacity:1;fill-rule:nonzero;stroke:none"
           id="text1111"><tspan
             x="0"
             y="0"
             id="tspan1109">B</tspan></text><text
           y="-533.20209"
           x="471.09094"
           id="text202-9"
           style="font-variant:normal;font-weight:normal;font-size:18px;font-family:Helvetica;-inkscape-font-specification:Helvetica;writing-mode:lr-tb;fill:#000000;fill-opacity:1;fill-rule:nonzero;stroke:none;stroke-width:0.999998"
           transform="scale(1,-1)"><tspan
             id="tspan198-9"
             sodipodi:role="line"
             y="-533.20209"
             x="471.09094 480.69095"
             style="stroke-width:0.999998">JP</tspan><tspan
             y="-510.70209"
             x="471.09094"
             id="tspan200-7"
             sodipodi:role="line"
             style="stroke-width:0.999998" /></text><path
           inkscape:connector-curvature="0"
           id="path638-3-6"
           style="fill:none;stroke:#bebebe;stroke-width:3.20093;stroke-linecap:butt;stroke-linejoin:round;stroke-miterlimit:10;stroke-dasharray:none;stroke-opacity:1"
           d="m 429.5276,516.86492 h 13.825" /><text
           y="-512.94348"
           x="467.18845"
           id="text202-1-7"
           style="font-variant:normal;font-weight:normal;font-size:18px;font-family:Helvetica;-inkscape-font-specification:Helvetica;writing-mode:lr-tb;fill:#000000;fill-opacity:1;fill-rule:nonzero;stroke:none;stroke-width:0.999998"
           transform="scale(1,-1)"><tspan
             id="tspan198-8-6"
             sodipodi:role="line"
             style="stroke-width:0.999998"
             x="467.18845"
             y="-512.94348">US</tspan><tspan
             y="-490.44348"
             x="467.18845"
             id="tspan200-8-2"
             sodipodi:role="line"
             style="stroke-width:0.999998" /></text><path
           d="m 456.01123,543.49937 h 8.82 v -8.82 h -8.82 z"
           style="fill:#000000;fill-opacity:1;fill-rule:nonzero;stroke:#000000;stroke-width:1.41732;stroke-linecap:round;stroke-linejoin:round;stroke-miterlimit:10;stroke-dasharray:none;stroke-opacity:1"
           id="path7677-9"
           inkscape:connector-curvature="0" /><path
           d="m 453.76123,521.74937 h 8.82 v -8.82 h -8.82 z"
           style="fill:#bebebe;fill-opacity:1;fill-rule:nonzero;stroke:#000000;stroke-width:1.41732;stroke-linecap:round;stroke-linejoin:round;stroke-miterlimit:10;stroke-dasharray:none;stroke-opacity:1"
           id="path7667-4"
           inkscape:connector-curvature="0" /><path
           d="m 409.44623,516.96437 h 13.825"
           style="fill:none;stroke:#bebebe;stroke-width:3.20093;stroke-linecap:butt;stroke-linejoin:round;stroke-miterlimit:10;stroke-dasharray:none;stroke-opacity:1"
           id="path638-3-6-3"
           inkscape:connector-curvature="0" /><path
           inkscape:connector-curvature="0"
           id="path632-9-4-5-8"
           style="fill:none;stroke:#000000;stroke-width:3.31185;stroke-linecap:butt;stroke-linejoin:round;stroke-miterlimit:10;stroke-dasharray:none;stroke-opacity:1"
           d="m 410.74648,539.83937 h 14.79975" /><path
           d="m 430.04623,539.83937 h 14.79975"
           style="fill:none;stroke:#000000;stroke-width:3.31185;stroke-linecap:butt;stroke-linejoin:round;stroke-miterlimit:10;stroke-dasharray:none;stroke-opacity:1"
           id="path632-9-4-5-1-7"
           inkscape:connector-curvature="0" /><text
           style="font-variant:normal;font-weight:normal;font-size:18px;font-family:Helvetica;-inkscape-font-specification:Helvetica;writing-mode:lr-tb;fill:#000000;fill-opacity:1;fill-rule:nonzero;stroke:none;stroke-width:0.999998"
           id="text202-9-0"
           x="452.31509"
           y="-553.43018"
           transform="scale(1,-1)"><tspan
             sodipodi:role="line"
             id="tspan198-9-6"
             style="stroke-width:0.999998"
             x="452.31509"
             y="-553.43018">2008</tspan><tspan
             sodipodi:role="line"
             id="tspan200-7-2"
             x="452.31509"
             y="-530.93018"
             style="stroke-width:0.999998" /></text></g><g
         id="g2006"
         transform="translate(44.252373,-20.89626)"><text
           transform="scale(1,-1)"
           style="font-variant:normal;font-weight:normal;font-size:18px;font-family:Helvetica;-inkscape-font-specification:Helvetica;writing-mode:lr-tb;fill:#000000;fill-opacity:1;fill-rule:nonzero;stroke:none"
           id="text202-9-3"
           x="347.41971"
           y="-556.23773"><tspan
             x="347.41971 357.01971"
             y="-556.23773"
             sodipodi:role="line"
             id="tspan198-9-8">JP</tspan><tspan
             sodipodi:role="line"
             id="tspan200-7-1"
             x="347.41971"
             y="-533.73773" /></text><path
           d="m 305.85638,539.90056 h 13.825"
           style="fill:none;stroke:#bebebe;stroke-width:3.20093;stroke-linecap:butt;stroke-linejoin:round;stroke-miterlimit:10;stroke-dasharray:none;stroke-opacity:1"
           id="path638-3-6-5"
           inkscape:connector-curvature="0" /><text
           transform="scale(1,-1)"
           style="font-variant:normal;font-weight:normal;font-size:18px;font-family:Helvetica;-inkscape-font-specification:Helvetica;writing-mode:lr-tb;fill:#000000;fill-opacity:1;fill-rule:nonzero;stroke:none;stroke-width:0.999998"
           id="text202-1-7-3"
           x="343.51721"
           y="-535.97913"><tspan
             y="-535.97913"
             x="343.51721"
             style="stroke-width:0.999998"
             sodipodi:role="line"
             id="tspan198-8-6-5">US</tspan><tspan
             style="stroke-width:0.999998"
             sodipodi:role="line"
             id="tspan200-8-2-4"
             x="343.51721"
             y="-513.47913" /></text><path
           inkscape:connector-curvature="0"
           id="path7677-9-3"
           style="fill:#000000;fill-opacity:1;fill-rule:nonzero;stroke:#000000;stroke-width:1.41732;stroke-linecap:round;stroke-linejoin:round;stroke-miterlimit:10;stroke-dasharray:none;stroke-opacity:1"
           d="m 332.34001,566.53501 h 8.82 v -8.82 h -8.82 z" /><path
           inkscape:connector-curvature="0"
           id="path7667-4-6"
           style="fill:#bebebe;fill-opacity:1;fill-rule:nonzero;stroke:#000000;stroke-width:1.41732;stroke-linecap:round;stroke-linejoin:round;stroke-miterlimit:10;stroke-dasharray:none;stroke-opacity:1"
           d="m 330.09001,544.78501 h 8.82 v -8.82 h -8.82 z" /><path
           inkscape:connector-curvature="0"
           id="path638-3-6-3-5"
           style="fill:none;stroke:#bebebe;stroke-width:3.20093;stroke-linecap:butt;stroke-linejoin:round;stroke-miterlimit:10;stroke-dasharray:none;stroke-opacity:1"
           d="m 285.77501,540.00001 h 13.825" /><path
           d="m 287.07526,562.87501 h 14.79975"
           style="fill:none;stroke:#000000;stroke-width:3.31185;stroke-linecap:butt;stroke-linejoin:round;stroke-miterlimit:10;stroke-dasharray:none;stroke-opacity:1"
           id="path632-9-4-5-8-9"
           inkscape:connector-curvature="0" /><path
           inkscape:connector-curvature="0"
           id="path632-9-4-5-1-7-5"
           style="fill:none;stroke:#000000;stroke-width:3.31185;stroke-linecap:butt;stroke-linejoin:round;stroke-miterlimit:10;stroke-dasharray:none;stroke-opacity:1"
           d="m 306.37501,562.87501 h 14.79975" /><text
           transform="scale(1,-1)"
           y="-576.46582"
           x="328.64386"
           id="text202-9-0-4"
           style="font-variant:normal;font-weight:normal;font-size:18px;font-family:Helvetica;-inkscape-font-specification:Helvetica;writing-mode:lr-tb;fill:#000000;fill-opacity:1;fill-rule:nonzero;stroke:none;stroke-width:0.999998"><tspan
             y="-576.46582"
             x="328.64386"
             style="stroke-width:0.999998"
             id="tspan198-9-6-9"
             sodipodi:role="line">2008</tspan><tspan
             style="stroke-width:0.999998"
             y="-553.96582"
             x="328.64386"
             id="tspan200-7-2-1"
             sodipodi:role="line" /></text></g><g
         id="g2121"
         transform="translate(-347.0286,-331.00497)"><g
           id="g8378"
           transform="translate(595.47193,421.94379)"><path
             d="m 137.65888,126.56996 c 0,-6.636 -9.953,-6.636 -9.953,0 0,6.637 9.953,6.637 9.953,0"
             style="fill:#bebebe;fill-opacity:1;fill-rule:nonzero;stroke:#000000;stroke-width:1.41732;stroke-linecap:round;stroke-linejoin:round;stroke-miterlimit:10;stroke-dasharray:none;stroke-opacity:1"
             id="path96-4"
             inkscape:connector-curvature="0" /><text
             transform="matrix(1,0,0,-1,0,-1.0874999e-6)"
             style="font-variant:normal;font-weight:normal;font-size:18px;font-family:Helvetica;-inkscape-font-specification:Helvetica;writing-mode:lr-tb;fill:#000000;fill-opacity:1;fill-rule:nonzero;stroke:none"
             id="text202"
             x="146.8228"
             y="-141.41891"><tspan
               x="146.8228 156.42281"
               y="-141.41891"
               sodipodi:role="line"
               id="tspan198">JP</tspan><tspan
               sodipodi:role="line"
               id="tspan200"
               x="146.8228"
               y="-118.91891" /></text><path
             inkscape:connector-curvature="0"
             id="path130-5"
             style="fill:#000000;fill-opacity:1;fill-rule:nonzero;stroke:#000000;stroke-width:1.41732;stroke-linecap:round;stroke-linejoin:round;stroke-miterlimit:10;stroke-dasharray:none;stroke-opacity:1"
             d="m 138.15441,148.41849 c 0,-6.633 -9.953,-6.633 -9.953,0 0,6.636 9.953,6.636 9.953,0" /><g
             id="g778"
             transform="translate(-198.94151,12.004874)"><path
               d="m 289.39519,133.38461 h 14.79975"
               style="fill:none;stroke:#000000;stroke-width:3.31185;stroke-linecap:butt;stroke-linejoin:round;stroke-miterlimit:10;stroke-dasharray:none;stroke-opacity:1"
               id="path632-9-4-5"
               inkscape:connector-curvature="0" /><path
               inkscape:connector-curvature="0"
               id="path632-9-4-5-1"
               style="fill:none;stroke:#000000;stroke-width:3.31185;stroke-linecap:butt;stroke-linejoin:round;stroke-miterlimit:10;stroke-dasharray:none;stroke-opacity:1"
               d="m 304.19494,133.38461 h 14.79975" /></g><path
             d="m 105.25946,125.08177 h 13.825"
             style="fill:none;stroke:#bebebe;stroke-width:3.20093;stroke-linecap:butt;stroke-linejoin:round;stroke-miterlimit:10;stroke-dasharray:none;stroke-opacity:1"
             id="path638-3"
             inkscape:connector-curvature="0" /><path
             d="m 91.43446,125.08177 h 13.825"
             style="fill:none;stroke:#bebebe;stroke-width:3.20093;stroke-linecap:butt;stroke-linejoin:round;stroke-miterlimit:10;stroke-dasharray:none;stroke-opacity:1"
             id="path638-4-7"
             inkscape:connector-curvature="0" /><text
             transform="scale(1,-1)"
             style="font-variant:normal;font-weight:normal;font-size:18px;font-family:Helvetica;-inkscape-font-specification:Helvetica;writing-mode:lr-tb;fill:#000000;fill-opacity:1;fill-rule:nonzero;stroke:none;stroke-width:0.999998"
             id="text202-1"
             x="142.9203"
             y="-121.16033"><tspan
               y="-121.16033"
               x="142.9203"
               style="stroke-width:0.999998"
               sodipodi:role="line"
               id="tspan198-8">US</tspan><tspan
               style="stroke-width:0.999998"
               sodipodi:role="line"
               id="tspan200-8"
               x="142.9203"
               y="-98.660332" /></text></g><text
           transform="scale(1,-1)"
           style="font-variant:normal;font-weight:normal;font-size:18px;font-family:Helvetica;-inkscape-font-specification:Helvetica;writing-mode:lr-tb;fill:#000000;fill-opacity:1;fill-rule:nonzero;stroke:none;stroke-width:0.999998"
           id="text202-9-0-2"
           x="722.5752"
           y="-585.61523"><tspan
             sodipodi:role="line"
             id="tspan198-9-6-1"
             style="stroke-width:0.999998"
             x="722.5752"
             y="-585.61523">2018</tspan><tspan
             sodipodi:role="line"
             id="tspan200-7-2-1-5"
             x="722.5752"
             y="-563.11523"
             style="stroke-width:0.999998" /></text></g></g></g></svg>
