<?xml version="1.0" encoding="UTF-8" standalone="no"?>
<svg
   xmlns:dc="http://purl.org/dc/elements/1.1/"
   xmlns:cc="http://creativecommons.org/ns#"
   xmlns:rdf="http://www.w3.org/1999/02/22-rdf-syntax-ns#"
   xmlns:svg="http://www.w3.org/2000/svg"
   xmlns="http://www.w3.org/2000/svg"
   xmlns:sodipodi="http://sodipodi.sourceforge.net/DTD/sodipodi-0.dtd"
   xmlns:inkscape="http://www.inkscape.org/namespaces/inkscape"
   inkscape:export-ydpi="238.63814"
   inkscape:export-xdpi="238.63814"
   inkscape:export-filename="/Users/sashamushegian/Documents/Georgetown/albopictus-cpp/figures/FigS3.png"
   inkscape:version="1.0beta2 (2b71d25, 2019-12-03)"
   sodipodi:docname="FigS3.1.svg"
   viewBox="0 0 576 384"
   height="384"
   width="576"
   xml:space="preserve"
   id="svg949"
   version="1.1"><metadata
     id="metadata955"><rdf:RDF><cc:Work
         rdf:about=""><dc:format>image/svg+xml</dc:format><dc:type
           rdf:resource="http://purl.org/dc/dcmitype/StillImage" /><dc:title></dc:title></cc:Work></rdf:RDF></metadata><defs
     id="defs953" /><sodipodi:namedview
     inkscape:current-layer="g959"
     inkscape:window-maximized="0"
     inkscape:window-y="54"
     inkscape:window-x="0"
     inkscape:cy="192"
     inkscape:cx="234.65305"
     inkscape:zoom="0.70833333"
     showgrid="false"
     id="namedview951"
     inkscape:window-height="658"
     inkscape:window-width="1271"
     inkscape:pageshadow="2"
     inkscape:pageopacity="0"
     guidetolerance="10"
     gridtolerance="10"
     objecttolerance="10"
     borderopacity="1"
     inkscape:document-rotation="0"
     bordercolor="#666666"
     pagecolor="#ffffff" /><g
     transform="matrix(1.3333333,0,0,-1.3333333,0,384)"
     inkscape:label="FigS3"
     inkscape:groupmode="layer"
     id="g957"><g
       id="g959"><path
         inkscape:connector-curvature="0"
         id="path961"
         style="fill:#ffffff;fill-opacity:1;fill-rule:nonzero;stroke:none"
         d="M 0,0 H 432 V 288 H 0 Z" /><path
         inkscape:connector-curvature="0"
         id="path963"
         style="fill:#ffffff;fill-opacity:1;fill-rule:nonzero;stroke:none"
         d="M 0,0 H 432 V 288 H 0 Z" /><path
         inkscape:connector-curvature="0"
         id="path965"
         style="fill:none;stroke:#ffffff;stroke-width:1.06698;stroke-linecap:round;stroke-linejoin:round;stroke-miterlimit:10;stroke-dasharray:none;stroke-opacity:1"
         d="M 0,288 H 432 V 0 H 0 Z" /><path
         inkscape:connector-curvature="0"
         id="path967"
         style="fill:#bebebe;fill-opacity:1;fill-rule:nonzero;stroke:#000000;stroke-width:0.708661;stroke-linecap:round;stroke-linejoin:round;stroke-miterlimit:10;stroke-dasharray:none;stroke-opacity:1"
         d="m 384.473,269.539 h 6.301 v -6.301 h -6.301 z" /><path
         inkscape:connector-curvature="0"
         id="path969"
         style="fill:#bebebe;fill-opacity:1;fill-rule:nonzero;stroke:#000000;stroke-width:0.708661;stroke-linecap:round;stroke-linejoin:round;stroke-miterlimit:10;stroke-dasharray:none;stroke-opacity:1"
         d="m 184.965,234.824 h 6.301 v -6.301 h -6.301 z" /><path
         inkscape:connector-curvature="0"
         id="path971"
         style="fill:#bebebe;fill-opacity:1;fill-rule:nonzero;stroke:#000000;stroke-width:0.708661;stroke-linecap:round;stroke-linejoin:round;stroke-miterlimit:10;stroke-dasharray:none;stroke-opacity:1"
         d="m 305.594,272.004 h 6.301 v -6.301 h -6.301 z" /><path
         inkscape:connector-curvature="0"
         id="path973"
         style="fill:#bebebe;fill-opacity:1;fill-rule:nonzero;stroke:#000000;stroke-width:0.708661;stroke-linecap:round;stroke-linejoin:round;stroke-miterlimit:10;stroke-dasharray:none;stroke-opacity:1"
         d="m 132.609,172.898 h 6.301 v -6.301 h -6.301 z" /><path
         inkscape:connector-curvature="0"
         id="path975"
         style="fill:#bebebe;fill-opacity:1;fill-rule:nonzero;stroke:#000000;stroke-width:0.708661;stroke-linecap:round;stroke-linejoin:round;stroke-miterlimit:10;stroke-dasharray:none;stroke-opacity:1"
         d="m 321.277,267.898 h 6.301 v -6.301 h -6.301 z" /><path
         inkscape:connector-curvature="0"
         id="path977"
         style="fill:#bebebe;fill-opacity:1;fill-rule:nonzero;stroke:#000000;stroke-width:0.708661;stroke-linecap:round;stroke-linejoin:round;stroke-miterlimit:10;stroke-dasharray:none;stroke-opacity:1"
         d="m 274.918,263.746 h 6.301 v -6.301 h -6.301 z" /><path
         inkscape:connector-curvature="0"
         id="path979"
         style="fill:#bebebe;fill-opacity:1;fill-rule:nonzero;stroke:#000000;stroke-width:0.708661;stroke-linecap:round;stroke-linejoin:round;stroke-miterlimit:10;stroke-dasharray:none;stroke-opacity:1"
         d="m 103.086,84.363 h 6.301 v -6.301 h -6.301 z" /><path
         inkscape:connector-curvature="0"
         id="path981"
         style="fill:#bebebe;fill-opacity:1;fill-rule:nonzero;stroke:#000000;stroke-width:0.708661;stroke-linecap:round;stroke-linejoin:round;stroke-miterlimit:10;stroke-dasharray:none;stroke-opacity:1"
         d="m 166.516,193.734 h 6.301 v -6.301 h -6.301 z" /><path
         inkscape:connector-curvature="0"
         id="path983"
         style="fill:#bebebe;fill-opacity:1;fill-rule:nonzero;stroke:#000000;stroke-width:0.708661;stroke-linecap:round;stroke-linejoin:round;stroke-miterlimit:10;stroke-dasharray:none;stroke-opacity:1"
         d="m 357.949,273.863 h 6.301 v -6.301 h -6.301 z" /><path
         inkscape:connector-curvature="0"
         id="path985"
         style="fill:#bebebe;fill-opacity:1;fill-rule:nonzero;stroke:#000000;stroke-width:0.708661;stroke-linecap:round;stroke-linejoin:round;stroke-miterlimit:10;stroke-dasharray:none;stroke-opacity:1"
         d="m 406.383,274.793 h 6.301 v -6.301 h -6.301 z" /><path
         inkscape:connector-curvature="0"
         id="path987"
         style="fill:#000000;fill-opacity:1;fill-rule:nonzero;stroke:#000000;stroke-width:0.708661;stroke-linecap:round;stroke-linejoin:round;stroke-miterlimit:10;stroke-dasharray:none;stroke-opacity:1"
         d="m 194.883,266.793 h 6.301 v -6.301 h -6.301 z" /><path
         inkscape:connector-curvature="0"
         id="path989"
         style="fill:#000000;fill-opacity:1;fill-rule:nonzero;stroke:#000000;stroke-width:0.708661;stroke-linecap:round;stroke-linejoin:round;stroke-miterlimit:10;stroke-dasharray:none;stroke-opacity:1"
         d="m 260.156,273.387 h 6.301 v -6.301 h -6.301 z" /><path
         inkscape:connector-curvature="0"
         id="path991"
         style="fill:#000000;fill-opacity:1;fill-rule:nonzero;stroke:#000000;stroke-width:0.708661;stroke-linecap:round;stroke-linejoin:round;stroke-miterlimit:10;stroke-dasharray:none;stroke-opacity:1"
         d="m 329.117,239.668 h 6.301 v -6.301 h -6.301 z" /><path
         inkscape:connector-curvature="0"
         id="path993"
         style="fill:#000000;fill-opacity:1;fill-rule:nonzero;stroke:#000000;stroke-width:0.708661;stroke-linecap:round;stroke-linejoin:round;stroke-miterlimit:10;stroke-dasharray:none;stroke-opacity:1"
         d="m 251.852,254 h 6.301 v -6.301 h -6.301 z" /><path
         inkscape:connector-curvature="0"
         id="path995"
         style="fill:#000000;fill-opacity:1;fill-rule:nonzero;stroke:#000000;stroke-width:0.708661;stroke-linecap:round;stroke-linejoin:round;stroke-miterlimit:10;stroke-dasharray:none;stroke-opacity:1"
         d="m 309.742,259.512 h 6.301 v -6.301 h -6.301 z" /><path
         inkscape:connector-curvature="0"
         id="path997"
         style="fill:#000000;fill-opacity:1;fill-rule:nonzero;stroke:#000000;stroke-width:0.708661;stroke-linecap:round;stroke-linejoin:round;stroke-miterlimit:10;stroke-dasharray:none;stroke-opacity:1"
         d="m 331.426,264.914 h 6.301 v -6.301 h -6.301 z" /><path
         inkscape:connector-curvature="0"
         id="path999"
         style="fill:#000000;fill-opacity:1;fill-rule:nonzero;stroke:#000000;stroke-width:0.708661;stroke-linecap:round;stroke-linejoin:round;stroke-miterlimit:10;stroke-dasharray:none;stroke-opacity:1"
         d="m 364.867,272.609 h 6.301 v -6.301 h -6.301 z" /><path
         inkscape:connector-curvature="0"
         id="path1001"
         style="fill:#000000;fill-opacity:1;fill-rule:nonzero;stroke:#000000;stroke-width:0.708661;stroke-linecap:round;stroke-linejoin:round;stroke-miterlimit:10;stroke-dasharray:none;stroke-opacity:1"
         d="m 175.738,266.383 h 6.301 v -6.301 h -6.301 z" /><path
         inkscape:connector-curvature="0"
         id="path1003"
         style="fill:#000000;fill-opacity:1;fill-rule:nonzero;stroke:#000000;stroke-width:0.708661;stroke-linecap:round;stroke-linejoin:round;stroke-miterlimit:10;stroke-dasharray:none;stroke-opacity:1"
         d="m 288.984,263.25 h 6.301 v -6.301 h -6.301 z" /><path
         inkscape:connector-curvature="0"
         id="path1005"
         style="fill:#000000;fill-opacity:1;fill-rule:nonzero;stroke:#000000;stroke-width:0.708661;stroke-linecap:round;stroke-linejoin:round;stroke-miterlimit:10;stroke-dasharray:none;stroke-opacity:1"
         d="m 71.949,114.969 h 6.301 v -6.301 h -6.301 z" /><path
         inkscape:connector-curvature="0"
         id="path1007"
         style="fill:#bebebe;fill-opacity:1;fill-rule:nonzero;stroke:#000000;stroke-width:0.708661;stroke-linecap:round;stroke-linejoin:round;stroke-miterlimit:10;stroke-dasharray:none;stroke-opacity:1"
         d="m 245.625,258.453 h 6.301 v -6.301 h -6.301 z" /><path
         inkscape:connector-curvature="0"
         id="path1009"
         style="fill:#bebebe;fill-opacity:1;fill-rule:nonzero;stroke:#000000;stroke-width:0.708661;stroke-linecap:round;stroke-linejoin:round;stroke-miterlimit:10;stroke-dasharray:none;stroke-opacity:1"
         d="m 89.035,68.746 c 0,-4.742 -7.109,-4.742 -7.109,0 0,4.738 7.109,4.738 7.109,0" /><path
         inkscape:connector-curvature="0"
         id="path1011"
         style="fill:#bebebe;fill-opacity:1;fill-rule:nonzero;stroke:#000000;stroke-width:0.708661;stroke-linecap:round;stroke-linejoin:round;stroke-miterlimit:10;stroke-dasharray:none;stroke-opacity:1"
         d="m 110.023,80.699 c 0,-4.738 -7.109,-4.738 -7.109,0 0,4.742 7.109,4.742 7.109,0" /><path
         inkscape:connector-curvature="0"
         id="path1013"
         style="fill:#bebebe;fill-opacity:1;fill-rule:nonzero;stroke:#000000;stroke-width:0.708661;stroke-linecap:round;stroke-linejoin:round;stroke-miterlimit:10;stroke-dasharray:none;stroke-opacity:1"
         d="m 139.316,138.242 c 0,-4.742 -7.109,-4.742 -7.109,0 0,4.738 7.109,4.738 7.109,0" /><path
         inkscape:connector-curvature="0"
         id="path1015"
         style="fill:#bebebe;fill-opacity:1;fill-rule:nonzero;stroke:#000000;stroke-width:0.708661;stroke-linecap:round;stroke-linejoin:round;stroke-miterlimit:10;stroke-dasharray:none;stroke-opacity:1"
         d="m 173.449,224.5 c 0,-4.742 -7.109,-4.742 -7.109,0 0,4.738 7.109,4.738 7.109,0" /><path
         inkscape:connector-curvature="0"
         id="path1017"
         style="fill:#bebebe;fill-opacity:1;fill-rule:nonzero;stroke:#000000;stroke-width:0.708661;stroke-linecap:round;stroke-linejoin:round;stroke-miterlimit:10;stroke-dasharray:none;stroke-opacity:1"
         d="m 191.902,213.121 c 0,-4.738 -7.109,-4.738 -7.109,0 0,4.742 7.109,4.742 7.109,0" /><path
         inkscape:connector-curvature="0"
         id="path1019"
         style="fill:#bebebe;fill-opacity:1;fill-rule:nonzero;stroke:#000000;stroke-width:0.708661;stroke-linecap:round;stroke-linejoin:round;stroke-miterlimit:10;stroke-dasharray:none;stroke-opacity:1"
         d="m 252.332,265.379 c 0,-4.738 -7.113,-4.738 -7.113,0 0,4.742 7.113,4.742 7.113,0" /><path
         inkscape:connector-curvature="0"
         id="path1021"
         style="fill:#bebebe;fill-opacity:1;fill-rule:nonzero;stroke:#000000;stroke-width:0.708661;stroke-linecap:round;stroke-linejoin:round;stroke-miterlimit:10;stroke-dasharray:none;stroke-opacity:1"
         d="m 281.852,246.137 c 0,-4.739 -7.11,-4.739 -7.11,0 0,4.742 7.11,4.742 7.11,0" /><path
         inkscape:connector-curvature="0"
         id="path1023"
         style="fill:#bebebe;fill-opacity:1;fill-rule:nonzero;stroke:#000000;stroke-width:0.708661;stroke-linecap:round;stroke-linejoin:round;stroke-miterlimit:10;stroke-dasharray:none;stroke-opacity:1"
         d="m 312.297,266.949 c 0,-4.742 -7.109,-4.742 -7.109,0 0,4.739 7.109,4.739 7.109,0" /><path
         inkscape:connector-curvature="0"
         id="path1025"
         style="fill:#bebebe;fill-opacity:1;fill-rule:nonzero;stroke:#000000;stroke-width:0.708661;stroke-linecap:round;stroke-linejoin:round;stroke-miterlimit:10;stroke-dasharray:none;stroke-opacity:1"
         d="m 328.441,269.48 c 0,-4.738 -7.109,-4.738 -7.109,0 0,4.743 7.109,4.743 7.109,0" /><path
         inkscape:connector-curvature="0"
         id="path1027"
         style="fill:#bebebe;fill-opacity:1;fill-rule:nonzero;stroke:#000000;stroke-width:0.708661;stroke-linecap:round;stroke-linejoin:round;stroke-miterlimit:10;stroke-dasharray:none;stroke-opacity:1"
         d="m 364.883,270.41 c 0,-4.742 -7.11,-4.742 -7.11,0 0,4.738 7.11,4.738 7.11,0" /><path
         inkscape:connector-curvature="0"
         id="path1029"
         style="fill:#bebebe;fill-opacity:1;fill-rule:nonzero;stroke:#000000;stroke-width:0.708661;stroke-linecap:round;stroke-linejoin:round;stroke-miterlimit:10;stroke-dasharray:none;stroke-opacity:1"
         d="m 391.18,270.754 c 0,-4.742 -7.114,-4.742 -7.114,0 0,4.738 7.114,4.738 7.114,0" /><path
         inkscape:connector-curvature="0"
         id="path1031"
         style="fill:#bebebe;fill-opacity:1;fill-rule:nonzero;stroke:#000000;stroke-width:0.708661;stroke-linecap:round;stroke-linejoin:round;stroke-miterlimit:10;stroke-dasharray:none;stroke-opacity:1"
         d="m 413.32,270.879 c 0,-4.738 -7.109,-4.738 -7.109,0 0,4.742 7.109,4.742 7.109,0" /><path
         inkscape:connector-curvature="0"
         id="path1033"
         style="fill:#000000;fill-opacity:1;fill-rule:nonzero;stroke:#000000;stroke-width:0.708661;stroke-linecap:round;stroke-linejoin:round;stroke-miterlimit:10;stroke-dasharray:none;stroke-opacity:1"
         d="m 78.195,109.586 c 0,-4.738 -7.109,-4.738 -7.109,0 0,4.742 7.109,4.742 7.109,0" /><path
         inkscape:connector-curvature="0"
         id="path1035"
         style="fill:#000000;fill-opacity:1;fill-rule:nonzero;stroke:#000000;stroke-width:0.708661;stroke-linecap:round;stroke-linejoin:round;stroke-miterlimit:10;stroke-dasharray:none;stroke-opacity:1"
         d="m 202.742,264.508 c 0,-4.738 -7.109,-4.738 -7.109,0 0,4.742 7.109,4.742 7.109,0" /><path
         inkscape:connector-curvature="0"
         id="path1037"
         style="fill:#000000;fill-opacity:1;fill-rule:nonzero;stroke:#000000;stroke-width:0.708661;stroke-linecap:round;stroke-linejoin:round;stroke-miterlimit:10;stroke-dasharray:none;stroke-opacity:1"
         d="m 226.961,270.109 c 0,-4.738 -7.113,-4.738 -7.113,0 0,4.743 7.113,4.743 7.113,0" /><path
         inkscape:connector-curvature="0"
         id="path1039"
         style="fill:#000000;fill-opacity:1;fill-rule:nonzero;stroke:#000000;stroke-width:0.708661;stroke-linecap:round;stroke-linejoin:round;stroke-miterlimit:10;stroke-dasharray:none;stroke-opacity:1"
         d="m 240.797,265.23 c 0,-4.738 -7.109,-4.738 -7.109,0 0,4.743 7.109,4.743 7.109,0" /><path
         inkscape:connector-curvature="0"
         id="path1041"
         style="fill:#000000;fill-opacity:1;fill-rule:nonzero;stroke:#000000;stroke-width:0.708661;stroke-linecap:round;stroke-linejoin:round;stroke-miterlimit:10;stroke-dasharray:none;stroke-opacity:1"
         d="m 262.25,268.426 c 0,-4.738 -7.113,-4.738 -7.113,0 0,4.742 7.113,4.742 7.113,0" /><path
         inkscape:connector-curvature="0"
         id="path1043"
         style="fill:#000000;fill-opacity:1;fill-rule:nonzero;stroke:#000000;stroke-width:0.708661;stroke-linecap:round;stroke-linejoin:round;stroke-miterlimit:10;stroke-dasharray:none;stroke-opacity:1"
         d="m 281.16,268.719 c 0,-4.739 -7.109,-4.739 -7.109,0 0,4.742 7.109,4.742 7.109,0" /><path
         inkscape:connector-curvature="0"
         id="path1045"
         style="fill:#000000;fill-opacity:1;fill-rule:nonzero;stroke:#000000;stroke-width:0.708661;stroke-linecap:round;stroke-linejoin:round;stroke-miterlimit:10;stroke-dasharray:none;stroke-opacity:1"
         d="m 289.234,270.633 c 0,-4.738 -7.109,-4.738 -7.109,0 0,4.742 7.109,4.742 7.109,0" /><path
         inkscape:connector-curvature="0"
         id="path1047"
         style="fill:#000000;fill-opacity:1;fill-rule:nonzero;stroke:#000000;stroke-width:0.708661;stroke-linecap:round;stroke-linejoin:round;stroke-miterlimit:10;stroke-dasharray:none;stroke-opacity:1"
         d="m 317.141,265.598 c 0,-4.743 -7.11,-4.743 -7.11,0 0,4.738 7.11,4.738 7.11,0" /><path
         inkscape:connector-curvature="0"
         id="path1049"
         style="fill:#000000;fill-opacity:1;fill-rule:nonzero;stroke:#000000;stroke-width:0.708661;stroke-linecap:round;stroke-linejoin:round;stroke-miterlimit:10;stroke-dasharray:none;stroke-opacity:1"
         d="m 348.277,270.965 c 0,-4.738 -7.109,-4.738 -7.109,0 0,4.742 7.109,4.742 7.109,0" /><path
         inkscape:connector-curvature="0"
         id="path1051"
         style="fill:#000000;fill-opacity:1;fill-rule:nonzero;stroke:#000000;stroke-width:0.708661;stroke-linecap:round;stroke-linejoin:round;stroke-miterlimit:10;stroke-dasharray:none;stroke-opacity:1"
         d="m 357.043,268.035 c 0,-4.742 -7.109,-4.742 -7.109,0 0,4.738 7.109,4.738 7.109,0" /><path
         inkscape:connector-curvature="0"
         id="path1053"
         style="fill:none;stroke:#000000;stroke-width:2.13396;stroke-linecap:butt;stroke-linejoin:round;stroke-miterlimit:10;stroke-dasharray:14.9377, 6.40187;stroke-dashoffset:0;stroke-opacity:1"
         d="m 75.102,112.137 3.707,8.066 3.707,7.852 3.711,7.633 3.707,7.417 3.707,7.204 3.707,6.984 3.707,6.773 3.711,6.559 3.707,6.344 3.707,6.133 3.707,5.921 3.707,5.707 3.707,5.5 3.711,5.29 3.707,5.078 3.707,4.867 3.707,4.664 3.707,4.453 3.711,4.246 3.707,4.043 3.707,3.832 3.707,3.629 3.707,3.426 3.711,3.219 3.707,3.019 3.707,2.813 3.707,2.613 3.707,2.41 3.711,1.949 3.707,1.289 3.707,0.719 3.707,0.231 3.707,-0.165 3.711,-0.355 3.707,-0.297 3.707,-0.242 3.707,-0.188 3.707,-0.144 3.711,-0.106 3.707,-0.07 3.707,-0.039 3.707,-0.019 3.707,-0.004 3.711,0.007 7.414,0.032 3.707,0.008 3.707,-0.004 3.711,0.004 3.707,0.199 3.707,0.508 3.707,0.515 3.707,0.375 3.711,0.238 3.707,0.098 3.707,-0.039 3.707,-0.172 3.707,-0.305 3.711,-0.5 3.707,-1.078 3.707,-1.507 3.707,-1.676 3.707,-1.598 3.711,-1.266 3.707,-0.984 3.707,-0.992 3.707,-0.84 3.707,-0.512 3.711,-0.007 3.707,0.519 3.707,0.856 3.707,1.125 3.708,1.398 3.71,1.676 3.708,1.957 3.707,2.254 3.707,2.543 3.707,2.847 3.711,3.153" /><path
         inkscape:connector-curvature="0"
         id="path1055"
         style="fill:none;stroke:#bebebe;stroke-width:2.13396;stroke-linecap:butt;stroke-linejoin:round;stroke-miterlimit:10;stroke-dasharray:14.9377, 6.40187;stroke-dashoffset:0;stroke-opacity:1"
         d="m 106.238,89.066 3.84,8.922 3.84,8.676 3.836,8.43 3.84,8.183 3.84,7.938 3.839,7.691 3.84,7.446 3.84,7.195 3.836,6.937 3.84,6.68 3.84,6.422 3.84,6.176 3.839,5.933 3.84,5.7 3.836,5.464 3.84,5.239 3.84,4.988 3.84,4.559 3.84,4.21 3.839,3.981 3.836,3.871 3.84,3.773 3.84,3.411 3.84,3.05 3.84,2.727 3.84,2.434 3.836,2.175 3.839,1.946 3.84,1.75 3.84,1.589 3.84,1.458 3.84,1.359 3.836,1.289 7.679,2.516 3.84,1.289 3.84,1.347 3.84,1.278 3.836,0.988 3.84,0.766 3.84,0.613 3.839,0.527 3.84,0.52 3.84,0.578 3.836,0.695 3.84,0.695 3.84,0.629 3.84,0.579 3.839,0.531 3.84,0.5 3.836,0.472 3.84,0.457 3.84,0.446 3.84,0.363 3.84,0.293 3.839,0.277 3.836,0.317 3.84,0.32 3.84,0.285 3.84,0.25 3.84,0.227 3.836,0.203 3.839,0.183 3.84,0.168 3.84,0.157 3.84,0.152 3.84,0.141 3.836,0.121 3.84,0.101 3.839,0.082 3.84,0.063 3.84,0.047 3.84,0.031 3.836,0.016 h 3.84 l 3.84,-0.016 3.839,-0.035 3.84,-0.051 3.84,-0.066" /><path
         inkscape:connector-curvature="0"
         id="path1057"
         style="fill:none;stroke:#000000;stroke-width:2.13396;stroke-linecap:butt;stroke-linejoin:round;stroke-miterlimit:10;stroke-dasharray:none;stroke-opacity:1"
         d="m 74.641,109.602 3.527,7.359 3.531,7.25 3.531,7.129 3.528,7.008 3.531,6.875 3.527,6.746 3.532,6.605 3.531,6.461 3.527,6.309 3.532,6.156 3.531,5.992 3.527,5.828 3.531,5.66 3.528,5.477 3.531,5.301 3.531,5.109 3.528,4.918 3.531,4.719 3.527,4.516 3.531,4.304 3.532,4.094 3.527,3.871 3.531,3.649 3.528,3.417 3.531,3.184 3.531,2.938 3.527,2.695 3.532,2.441 3.527,2.188 3.531,1.922 3.531,1.656 3.528,1.379 3.531,1.105 3.527,0.817 3.532,0.531 3.531,0.305 3.527,0.273 3.532,0.258 3.531,0.242 3.527,0.227 3.531,0.214 3.528,0.204 3.531,0.187 3.531,0.164 3.528,0.156 3.531,0.149 3.527,0.074 3.531,-0.062 3.532,-0.141 3.527,-0.141 3.531,-0.074 3.528,0.059 3.531,0.273 3.531,0.461 3.527,0.523 3.532,0.458 3.527,0.265 3.531,0.039 3.532,0.153 3.527,-0.032 3.531,-0.211 3.527,-0.273 7.063,-0.602 3.527,-0.277 3.532,-0.215 3.527,-0.129 3.531,-0.019 3.531,0.019 3.528,0.039 3.531,0.059 3.531,0.082 3.528,0.109 3.531,0.141 3.527,0.176 3.531,0.215 3.532,0.253 3.527,0.297 3.531,0.329" /><path
         inkscape:connector-curvature="0"
         id="path1059"
         style="fill:none;stroke:#bebebe;stroke-width:2.13396;stroke-linecap:butt;stroke-linejoin:round;stroke-miterlimit:10;stroke-dasharray:none;stroke-opacity:1"
         d="m 85.48,54.082 4.106,8.969 4.105,8.777 4.102,8.59 4.105,8.41 4.106,8.238 4.105,8.067 4.106,7.89 4.105,7.711 4.106,7.524 4.101,7.332 4.106,7.133 4.105,6.925 4.106,6.743 4.105,6.613 4.106,6.465 4.101,6.293 4.106,6.105 4.105,5.899 4.106,5.672 4.105,5.421 4.106,5.227 4.105,5.469 4.102,5.527 4.105,5.266 4.106,4.675 4.105,3.973 4.105,3.445 4.106,2.977 4.102,2.559 4.105,2.191 4.105,1.879 4.106,1.621 4.105,1.41 4.106,1.258 4.101,1.16 4.106,1.109 4.105,1.118 4.106,1.172 4.105,1.285 4.106,1.437 4.105,1.27 4.102,1.011 4.105,0.832 4.106,0.735 4.105,0.719 4.106,0.773 4.105,0.918 4.102,0.906 4.105,0.742 4.106,0.622 4.105,0.531 4.106,0.484 4.105,0.481 4.106,0.507 4.101,0.555 4.106,0.539 4.105,0.52 4.105,0.496 4.106,0.476 4.105,0.461 4.102,0.446 4.105,0.425 4.106,0.407 4.105,0.379 4.106,0.355 4.105,0.328 4.106,0.293 4.101,0.266 4.106,0.25 4.105,0.226 4.106,0.2 4.105,0.171 4.106,0.141 4.101,0.106 4.106,0.07 4.105,0.035 4.106,0.008 4.105,-0.02 4.106,-0.047" /><path
         inkscape:connector-curvature="0"
         id="path1061"
         style="fill:none;stroke:#000000;stroke-width:1.06698;stroke-linecap:butt;stroke-linejoin:round;stroke-miterlimit:10;stroke-dasharray:none;stroke-opacity:1"
         d="M 57.883,43.203 V 282.52" /><text
         id="text1073"
         style="font-variant:normal;font-weight:normal;font-size:14.4px;font-family:Helvetica;-inkscape-font-specification:Helvetica;writing-mode:lr-tb;fill:#4d4d4d;fill-opacity:1;fill-rule:nonzero;stroke:none"
         transform="matrix(1,0,0,-1,24.914062,50.324219)"><tspan
           id="tspan1063"
           sodipodi:role="line"
           y="0"
           x="0 8.0064001 11.9952 20.0016">0.00</tspan><tspan
           id="tspan1065"
           sodipodi:role="line"
           y="-54.039066"
           x="0 8.0064001 11.9952 20.0016">0.25</tspan><tspan
           id="tspan1067"
           sodipodi:role="line"
           y="-108.07813"
           x="0 8.0064001 11.9952 20.0016">0.50</tspan><tspan
           id="tspan1069"
           sodipodi:role="line"
           y="-162.1172"
           x="0 8.0064001 11.9952 20.0016">0.75</tspan><tspan
           id="tspan1071"
           sodipodi:role="line"
           y="-216.15234"
           x="0 8.0064001 11.9952 20.0016">1.00</tspan></text><path
         inkscape:connector-curvature="0"
         id="path1075"
         style="fill:none;stroke:#333333;stroke-width:1.06698;stroke-linecap:butt;stroke-linejoin:round;stroke-miterlimit:10;stroke-dasharray:none;stroke-opacity:1"
         d="m 55.145,55.488 h 2.738" /><path
         inkscape:connector-curvature="0"
         id="path1077"
         style="fill:none;stroke:#333333;stroke-width:1.06698;stroke-linecap:butt;stroke-linejoin:round;stroke-miterlimit:10;stroke-dasharray:none;stroke-opacity:1"
         d="m 55.145,109.527 h 2.738" /><path
         inkscape:connector-curvature="0"
         id="path1079"
         style="fill:none;stroke:#333333;stroke-width:1.06698;stroke-linecap:butt;stroke-linejoin:round;stroke-miterlimit:10;stroke-dasharray:none;stroke-opacity:1"
         d="m 55.145,163.566 h 2.738" /><path
         inkscape:connector-curvature="0"
         id="path1081"
         style="fill:none;stroke:#333333;stroke-width:1.06698;stroke-linecap:butt;stroke-linejoin:round;stroke-miterlimit:10;stroke-dasharray:none;stroke-opacity:1"
         d="m 55.145,217.605 h 2.738" /><path
         inkscape:connector-curvature="0"
         id="path1083"
         style="fill:none;stroke:#333333;stroke-width:1.06698;stroke-linecap:butt;stroke-linejoin:round;stroke-miterlimit:10;stroke-dasharray:none;stroke-opacity:1"
         d="m 55.145,271.641 h 2.738" /><path
         inkscape:connector-curvature="0"
         id="path1085"
         style="fill:none;stroke:#000000;stroke-width:1.06698;stroke-linecap:butt;stroke-linejoin:round;stroke-miterlimit:10;stroke-dasharray:none;stroke-opacity:1"
         d="M 57.883,43.203 H 426.52" /><path
         inkscape:connector-curvature="0"
         id="path1087"
         style="fill:none;stroke:#333333;stroke-width:1.06698;stroke-linecap:butt;stroke-linejoin:round;stroke-miterlimit:10;stroke-dasharray:none;stroke-opacity:1"
         d="m 162.285,40.465 v 2.738" /><path
         inkscape:connector-curvature="0"
         id="path1089"
         style="fill:none;stroke:#333333;stroke-width:1.06698;stroke-linecap:butt;stroke-linejoin:round;stroke-miterlimit:10;stroke-dasharray:none;stroke-opacity:1"
         d="m 277.605,40.465 v 2.738" /><path
         inkscape:connector-curvature="0"
         id="path1091"
         style="fill:none;stroke:#333333;stroke-width:1.06698;stroke-linecap:butt;stroke-linejoin:round;stroke-miterlimit:10;stroke-dasharray:none;stroke-opacity:1"
         d="m 392.926,40.465 v 2.738" /><text
         id="text1095"
         style="font-variant:normal;font-weight:normal;font-size:14.4px;font-family:Helvetica;-inkscape-font-specification:Helvetica;writing-mode:lr-tb;fill:#4d4d4d;fill-opacity:1;fill-rule:nonzero;stroke:none"
         transform="matrix(1,0,0,-1,154.27344,27.945312)"><tspan
           id="tspan1093"
           sodipodi:role="line"
           y="0"
           x="0 8.0064001 115.3152 123.3216 230.64062 238.64702">303540</tspan></text><text
         id="text1099"
         style="font-variant:normal;font-weight:normal;font-size:18px;font-family:Helvetica;-inkscape-font-specification:Helvetica;writing-mode:lr-tb;fill:#000000;fill-opacity:1;fill-rule:nonzero;stroke:none"
         transform="matrix(1,0,0,-1,210.17578,9.265625)"><tspan
           id="tspan1097"
           sodipodi:role="line"
           y="0"
           x="0 10.008 20.016001 25.002001 28.997999 33.984001 43.992001 54">Latitude</tspan></text><text
         id="text1103"
         style="font-variant:normal;font-weight:normal;font-size:18px;font-family:Helvetica;-inkscape-font-specification:Helvetica;writing-mode:lr-tb;fill:#000000;fill-opacity:1;fill-rule:nonzero;stroke:none"
         transform="matrix(0,1,1,0,18.386719,44.285156)"><tspan
           id="tspan1101"
           sodipodi:role="line"
           y="0"
           x="0 11.988 21.996 32.004002 37.998001 42.984001 48.978001 58.986 68.994003 77.994003 82.980003 92.987999 96.984001 106.992 117 127.008 137.01601 146.01601 156.024 161.00999 165.006 175.01401 184.01401 188.00999 198.01801 208.026 218.034 227.034">Short-day diapause incidence</tspan></text><g
         transform="translate(1.3124674,-8.7279267)"
         inkscape:export-ydpi="238.63814"
         inkscape:export-xdpi="238.63814"
         id="g817"><text
           transform="scale(1,-1)"
           style="font-variant:normal;font-weight:normal;font-size:18px;font-family:Helvetica;-inkscape-font-specification:Helvetica;writing-mode:lr-tb;fill:#000000;fill-opacity:1;fill-rule:nonzero;stroke:none"
           id="text202"
           x="347.26431"
           y="-129.41406"><tspan
             x="347.26431 356.86432"
             y="-129.41406"
             sodipodi:role="line"
             id="tspan198">JP, 2018</tspan><tspan
             sodipodi:role="line"
             id="tspan200"
             x="347.26431"
             y="-106.91406">JP, 2008</tspan></text><path
           inkscape:connector-curvature="0"
           id="path130-5"
           style="fill:#000000;fill-opacity:1;fill-rule:nonzero;stroke:#000000;stroke-width:1.41732;stroke-linecap:round;stroke-linejoin:round;stroke-miterlimit:10;stroke-dasharray:none;stroke-opacity:1"
           d="m 338.59592,136.41364 c 0,-6.633 -9.953,-6.633 -9.953,0 0,6.636 9.953,6.636 9.953,0" /><path
           inkscape:connector-curvature="0"
           id="path96-4"
           style="fill:#bebebe;fill-opacity:1;fill-rule:nonzero;stroke:#000000;stroke-width:1.41732;stroke-linecap:round;stroke-linejoin:round;stroke-miterlimit:10;stroke-dasharray:none;stroke-opacity:1"
           d="m 336.60039,92.065112 c 0,-6.636 -9.953,-6.636 -9.953,0 0,6.637 9.953,6.637 9.953,0" /><text
           y="-86.655479"
           x="341.86182"
           id="text202-1"
           style="font-variant:normal;font-weight:normal;font-size:18px;font-family:Helvetica;-inkscape-font-specification:Helvetica;writing-mode:lr-tb;fill:#000000;fill-opacity:1;fill-rule:nonzero;stroke:none;stroke-width:0.999998"
           transform="scale(1,-1)"><tspan
             id="tspan198-8"
             sodipodi:role="line"
             style="stroke-width:0.999998"
             x="341.86182"
             y="-86.655479">US, 2018</tspan><tspan
             y="-64.155479"
             x="341.86182"
             id="tspan200-8"
             sodipodi:role="line"
             style="stroke-width:0.999998">US, 2008</tspan></text><path
           inkscape:connector-curvature="0"
           id="path72-7"
           style="fill:#000000;fill-opacity:1;fill-rule:nonzero;stroke:#000000;stroke-width:1.41732;stroke-linecap:round;stroke-linejoin:round;stroke-miterlimit:10;stroke-dasharray:none;stroke-opacity:1"
           d="m 329.14265,118.20477 h 8.82 v -8.82 h -8.82 z" /><path
           inkscape:connector-curvature="0"
           id="path70-4"
           style="fill:#bebebe;fill-opacity:1;fill-rule:nonzero;stroke:#000000;stroke-width:1.41732;stroke-linecap:round;stroke-linejoin:round;stroke-miterlimit:10;stroke-dasharray:none;stroke-opacity:1"
           d="m 327.1149,75.701365 h 8.82 v -8.82 h -8.82 z" /><path
           inkscape:connector-curvature="0"
           id="path638"
           style="fill:none;stroke:#bebebe;stroke-width:3.20093;stroke-linecap:butt;stroke-linejoin:round;stroke-miterlimit:10;stroke-dasharray:none;stroke-opacity:1"
           d="m 307.27981,72.224892 h 13.825" /><path
           inkscape:connector-curvature="0"
           id="path632-9"
           style="fill:none;stroke:#000000;stroke-width:3.20093;stroke-linecap:butt;stroke-linejoin:round;stroke-miterlimit:10;stroke-dasharray:none;stroke-opacity:1"
           d="m 307.27981,114.81358 h 13.825" /><path
           inkscape:connector-curvature="0"
           id="path638-4"
           style="fill:none;stroke:#bebebe;stroke-width:3.20093;stroke-linecap:butt;stroke-linejoin:round;stroke-miterlimit:10;stroke-dasharray:none;stroke-opacity:1"
           d="m 288.95481,72.224892 h 13.825" /><path
           d="m 288.95481,114.81358 h 13.825"
           style="fill:none;stroke:#000000;stroke-width:3.20093;stroke-linecap:butt;stroke-linejoin:round;stroke-miterlimit:10;stroke-dasharray:none;stroke-opacity:1"
           id="path632-9-4"
           inkscape:connector-curvature="0" /><g
           id="g778"
           transform="translate(1.5)"><path
             d="m 289.39519,133.38461 h 14.79975"
             style="fill:none;stroke:#000000;stroke-width:3.31185;stroke-linecap:butt;stroke-linejoin:round;stroke-miterlimit:10;stroke-dasharray:none;stroke-opacity:1"
             id="path632-9-4-5"
             inkscape:connector-curvature="0" /><path
             inkscape:connector-curvature="0"
             id="path632-9-4-5-1"
             style="fill:none;stroke:#000000;stroke-width:3.31185;stroke-linecap:butt;stroke-linejoin:round;stroke-miterlimit:10;stroke-dasharray:none;stroke-opacity:1"
             d="m 304.19494,133.38461 h 14.79975" /></g><path
           d="m 304.20097,90.576924 h 13.825"
           style="fill:none;stroke:#bebebe;stroke-width:3.20093;stroke-linecap:butt;stroke-linejoin:round;stroke-miterlimit:10;stroke-dasharray:none;stroke-opacity:1"
           id="path638-3"
           inkscape:connector-curvature="0" /><path
           d="m 290.37597,90.576924 h 13.825"
           style="fill:none;stroke:#bebebe;stroke-width:3.20093;stroke-linecap:butt;stroke-linejoin:round;stroke-miterlimit:10;stroke-dasharray:none;stroke-opacity:1"
           id="path638-4-7"
           inkscape:connector-curvature="0" /></g></g></g></svg>
