<?xml version="1.0" encoding="UTF-8" standalone="no"?>
<svg
   xmlns:dc="http://purl.org/dc/elements/1.1/"
   xmlns:cc="http://creativecommons.org/ns#"
   xmlns:rdf="http://www.w3.org/1999/02/22-rdf-syntax-ns#"
   xmlns:svg="http://www.w3.org/2000/svg"
   xmlns="http://www.w3.org/2000/svg"
   xmlns:sodipodi="http://sodipodi.sourceforge.net/DTD/sodipodi-0.dtd"
   xmlns:inkscape="http://www.inkscape.org/namespaces/inkscape"
   inkscape:export-ydpi="96"
   inkscape:export-xdpi="96"
   inkscape:export-filename="/Users/sashamushegian/Documents/Georgetown/albopictus-cpp/figures/FigS5.png"
   inkscape:version="1.0beta2 (2b71d25, 2019-12-03)"
   sodipodi:docname="FigS5.svg"
   viewBox="0 0 480 672"
   height="672"
   width="480"
   xml:space="preserve"
   id="svg2157"
   version="1.1"><metadata
     id="metadata2163"><rdf:RDF><cc:Work
         rdf:about=""><dc:format>image/svg+xml</dc:format><dc:type
           rdf:resource="http://purl.org/dc/dcmitype/StillImage" /><dc:title></dc:title></cc:Work></rdf:RDF></metadata><defs
     id="defs2161"><clipPath
       id="clipPath2179"
       clipPathUnits="userSpaceOnUse"><path
         inkscape:connector-curvature="0"
         id="path2177"
         d="M 0,504 H 360 V 252 H 0 Z" /></clipPath><clipPath
       id="clipPath2313"
       clipPathUnits="userSpaceOnUse"><path
         inkscape:connector-curvature="0"
         id="path2311"
         d="M 0,252 H 360 V 0 H 0 Z" /></clipPath></defs><sodipodi:namedview
     inkscape:current-layer="g2165"
     inkscape:window-maximized="0"
     inkscape:window-y="74"
     inkscape:window-x="167"
     inkscape:cy="235.54174"
     inkscape:cx="192.24936"
     inkscape:zoom="0.80952381"
     showgrid="false"
     id="namedview2159"
     inkscape:window-height="686"
     inkscape:window-width="1221"
     inkscape:pageshadow="2"
     inkscape:pageopacity="0"
     guidetolerance="10"
     gridtolerance="10"
     objecttolerance="10"
     borderopacity="1"
     inkscape:document-rotation="0"
     bordercolor="#666666"
     pagecolor="#ffffff" /><g
     transform="matrix(1.3333333,0,0,-1.3333333,0,672)"
     inkscape:label="FigS5"
     inkscape:groupmode="layer"
     id="g2165"><g
       id="g2167"><path
         inkscape:connector-curvature="0"
         id="path2169"
         style="fill:#ffffff;fill-opacity:1;fill-rule:nonzero;stroke:none"
         d="M 0,0 H 360 V 504 H 0 Z" /><path
         inkscape:connector-curvature="0"
         id="path2171"
         style="fill:#ffffff;fill-opacity:1;fill-rule:nonzero;stroke:none"
         d="M 0,504 H 360 V 252 H 0 Z" /></g><g
       id="g2173"><g
         clip-path="url(#clipPath2179)"
         id="g2175"><path
           inkscape:connector-curvature="0"
           id="path2181"
           style="fill:none;stroke:#ffffff;stroke-width:1.06698;stroke-linecap:round;stroke-linejoin:round;stroke-miterlimit:10;stroke-dasharray:none;stroke-opacity:1"
           d="M 0,504 H 360 V 252 H 0 Z" /><path
           inkscape:connector-curvature="0"
           id="path2183"
           style="fill:#bebebe;fill-opacity:1;fill-rule:nonzero;stroke:#000000;stroke-width:1.41732;stroke-linecap:round;stroke-linejoin:round;stroke-miterlimit:10;stroke-dasharray:none;stroke-opacity:1"
           d="m 119.488,427.578 h 8.82 v -8.82 h -8.82 z" /><path
           inkscape:connector-curvature="0"
           id="path2185"
           style="fill:#bebebe;fill-opacity:1;fill-rule:nonzero;stroke:#000000;stroke-width:1.41732;stroke-linecap:round;stroke-linejoin:round;stroke-miterlimit:10;stroke-dasharray:none;stroke-opacity:1"
           d="m 251.367,369.535 h 8.82 v -8.82 h -8.82 z" /><path
           inkscape:connector-curvature="0"
           id="path2187"
           style="fill:#bebebe;fill-opacity:1;fill-rule:nonzero;stroke:#000000;stroke-width:1.41732;stroke-linecap:round;stroke-linejoin:round;stroke-miterlimit:10;stroke-dasharray:none;stroke-opacity:1"
           d="m 188.723,404.32 h 8.82 v -8.82 h -8.82 z" /><path
           inkscape:connector-curvature="0"
           id="path2189"
           style="fill:#bebebe;fill-opacity:1;fill-rule:nonzero;stroke:#000000;stroke-width:1.41732;stroke-linecap:round;stroke-linejoin:round;stroke-miterlimit:10;stroke-dasharray:none;stroke-opacity:1"
           d="m 109.598,462.348 h 8.82 v -8.82 h -8.82 z" /><path
           inkscape:connector-curvature="0"
           id="path2191"
           style="fill:#bebebe;fill-opacity:1;fill-rule:nonzero;stroke:#000000;stroke-width:1.41732;stroke-linecap:round;stroke-linejoin:round;stroke-miterlimit:10;stroke-dasharray:none;stroke-opacity:1"
           d="m 142.566,427.969 h 8.82 v -8.82 h -8.82 z" /><path
           inkscape:connector-curvature="0"
           id="path2193"
           style="fill:#bebebe;fill-opacity:1;fill-rule:nonzero;stroke:#000000;stroke-width:1.41732;stroke-linecap:round;stroke-linejoin:round;stroke-miterlimit:10;stroke-dasharray:none;stroke-opacity:1"
           d="m 257.961,369.348 h 8.82 v -8.82 h -8.82 z" /><path
           inkscape:connector-curvature="0"
           id="path2195"
           style="fill:#bebebe;fill-opacity:1;fill-rule:nonzero;stroke:#000000;stroke-width:1.41732;stroke-linecap:round;stroke-linejoin:round;stroke-miterlimit:10;stroke-dasharray:none;stroke-opacity:1"
           d="m 337.086,360.773 h 8.82 v -8.82 h -8.82 z" /><path
           inkscape:connector-curvature="0"
           id="path2197"
           style="fill:#bebebe;fill-opacity:1;fill-rule:nonzero;stroke:#000000;stroke-width:1.41732;stroke-linecap:round;stroke-linejoin:round;stroke-miterlimit:10;stroke-dasharray:none;stroke-opacity:1"
           d="m 198.613,403.484 h 8.82 v -8.82 h -8.82 z" /><path
           inkscape:connector-curvature="0"
           id="path2199"
           style="fill:#bebebe;fill-opacity:1;fill-rule:nonzero;stroke:#000000;stroke-width:1.41732;stroke-linecap:round;stroke-linejoin:round;stroke-miterlimit:10;stroke-dasharray:none;stroke-opacity:1"
           d="m 320.602,339.422 h 8.82 v -8.82 h -8.82 z" /><path
           inkscape:connector-curvature="0"
           id="path2201"
           style="fill:#bebebe;fill-opacity:1;fill-rule:nonzero;stroke:#000000;stroke-width:1.41732;stroke-linecap:round;stroke-linejoin:round;stroke-miterlimit:10;stroke-dasharray:none;stroke-opacity:1"
           d="m 172.238,431.98 h 8.82 v -8.82 h -8.82 z" /><path
           inkscape:connector-curvature="0"
           id="path2203"
           style="fill:#bebebe;fill-opacity:1;fill-rule:nonzero;stroke:#000000;stroke-width:1.41732;stroke-linecap:round;stroke-linejoin:round;stroke-miterlimit:10;stroke-dasharray:none;stroke-opacity:1"
           d="m 218.398,400.098 h 8.82 v -8.82 h -8.82 z" /><path
           inkscape:connector-curvature="0"
           id="path2205"
           style="fill:#000000;fill-opacity:1;fill-rule:nonzero;stroke:#000000;stroke-width:1.41732;stroke-linecap:round;stroke-linejoin:round;stroke-miterlimit:10;stroke-dasharray:none;stroke-opacity:1"
           d="m 337.086,388.914 h 8.82 v -8.82 h -8.82 z" /><path
           inkscape:connector-curvature="0"
           id="path2207"
           style="fill:#000000;fill-opacity:1;fill-rule:nonzero;stroke:#000000;stroke-width:1.41732;stroke-linecap:round;stroke-linejoin:round;stroke-miterlimit:10;stroke-dasharray:none;stroke-opacity:1"
           d="m 201.91,420.172 h 8.82 v -8.82 h -8.82 z" /><path
           inkscape:connector-curvature="0"
           id="path2209"
           style="fill:#000000;fill-opacity:1;fill-rule:nonzero;stroke:#000000;stroke-width:1.41732;stroke-linecap:round;stroke-linejoin:round;stroke-miterlimit:10;stroke-dasharray:none;stroke-opacity:1"
           d="m 274.445,367.055 h 8.82 v -8.82 h -8.82 z" /><path
           inkscape:connector-curvature="0"
           id="path2211"
           style="fill:#000000;fill-opacity:1;fill-rule:nonzero;stroke:#000000;stroke-width:1.41732;stroke-linecap:round;stroke-linejoin:round;stroke-miterlimit:10;stroke-dasharray:none;stroke-opacity:1"
           d="m 162.348,406.203 h 8.82 v -8.82 h -8.82 z" /><path
           inkscape:connector-curvature="0"
           id="path2213"
           style="fill:#000000;fill-opacity:1;fill-rule:nonzero;stroke:#000000;stroke-width:1.41732;stroke-linecap:round;stroke-linejoin:round;stroke-miterlimit:10;stroke-dasharray:none;stroke-opacity:1"
           d="m 182.129,405.09 h 8.82 v -8.82 h -8.82 z" /><path
           inkscape:connector-curvature="0"
           id="path2215"
           style="fill:#000000;fill-opacity:1;fill-rule:nonzero;stroke:#000000;stroke-width:1.41732;stroke-linecap:round;stroke-linejoin:round;stroke-miterlimit:10;stroke-dasharray:none;stroke-opacity:1"
           d="m 165.645,417.551 h 8.82 v -8.82 h -8.82 z" /><path
           inkscape:connector-curvature="0"
           id="path2217"
           style="fill:#000000;fill-opacity:1;fill-rule:nonzero;stroke:#000000;stroke-width:1.41732;stroke-linecap:round;stroke-linejoin:round;stroke-miterlimit:10;stroke-dasharray:none;stroke-opacity:1"
           d="m 89.816,444.668 h 8.82 v -8.82 h -8.82 z" /><path
           inkscape:connector-curvature="0"
           id="path2219"
           style="fill:#000000;fill-opacity:1;fill-rule:nonzero;stroke:#000000;stroke-width:1.41732;stroke-linecap:round;stroke-linejoin:round;stroke-miterlimit:10;stroke-dasharray:none;stroke-opacity:1"
           d="m 106.301,428.32 h 8.82 v -8.82 h -8.82 z" /><path
           inkscape:connector-curvature="0"
           id="path2221"
           style="fill:#000000;fill-opacity:1;fill-rule:nonzero;stroke:#000000;stroke-width:1.41732;stroke-linecap:round;stroke-linejoin:round;stroke-miterlimit:10;stroke-dasharray:none;stroke-opacity:1"
           d="m 76.629,462.555 h 8.82 v -8.82 h -8.82 z" /><path
           inkscape:connector-curvature="0"
           id="path2223"
           style="fill:#000000;fill-opacity:1;fill-rule:nonzero;stroke:#000000;stroke-width:1.41732;stroke-linecap:round;stroke-linejoin:round;stroke-miterlimit:10;stroke-dasharray:none;stroke-opacity:1"
           d="m 112.895,450.922 h 8.82 v -8.82 h -8.82 z" /><path
           inkscape:connector-curvature="0"
           id="path2225"
           style="fill:none;stroke:#000000;stroke-width:2.13396;stroke-linecap:butt;stroke-linejoin:round;stroke-miterlimit:10;stroke-dasharray:14.9377, 6.40187;stroke-dashoffset:0;stroke-opacity:1"
           d="m 81.039,443.422 9.891,-3.012 3.297,-1 9.89,-3.012 3.297,-1 9.891,-3.011 3.297,-1 13.187,-4.016 3.297,-1 9.891,-3.012 3.296,-1 9.891,-3.011 3.297,-1 13.187,-4.016 3.297,-1 9.891,-3.012 3.297,-1 13.187,-4.015 3.297,-1 3.297,-1.004 3.301,-1.004 3.297,-1.004 3.297,-1 9.89,-3.012 3.297,-1 13.188,-4.015 3.296,-1 9.891,-3.012 3.297,-1 13.187,-4.016 3.297,-1 9.891,-3.011 3.297,-1 9.89,-3.012 3.297,-1 13.188,-4.016 3.297,-1 9.89,-3.011 3.297,-1 3.297,-1.004" /><path
           inkscape:connector-curvature="0"
           id="path2227"
           style="fill:none;stroke:#bebebe;stroke-width:2.13396;stroke-linecap:butt;stroke-linejoin:round;stroke-miterlimit:10;stroke-dasharray:14.9377, 6.40187;stroke-dashoffset:0;stroke-opacity:1"
           d="m 114.008,441.84 2.879,-1.328 2.879,-1.324 2.879,-1.329 2.882,-1.328 2.879,-1.324 5.758,-2.656 2.879,-1.324 2.879,-1.329 2.883,-1.324 5.757,-2.656 2.879,-1.324 2.879,-1.328 2.883,-1.328 2.879,-1.325 2.879,-1.328 2.879,-1.324 2.879,-1.328 2.883,-1.328 2.878,-1.325 5.758,-2.656 2.879,-1.324 2.879,-1.328 2.883,-1.324 5.758,-2.657 2.879,-1.324 2.879,-1.328 2.882,-1.328 2.879,-1.324 2.879,-1.328 2.879,-1.325 5.758,-2.656 2.883,-1.324 5.757,-2.656 2.879,-1.325 2.879,-1.328 2.883,-1.324 5.758,-2.656 2.879,-1.324 5.758,-2.657 2.882,-1.324 2.879,-1.328 2.879,-1.324 5.758,-2.656 2.883,-1.325 2.879,-1.328 2.879,-1.324 5.758,-2.656 2.882,-1.324 5.758,-2.657 2.879,-1.324 2.879,-1.328 2.879,-1.324 2.883,-1.328 2.879,-1.329 2.878,-1.324 5.758,-2.656 2.883,-1.324 2.879,-1.328 2.879,-1.325 5.758,-2.656 2.879,-1.324 2.882,-1.328 2.879,-1.328 2.879,-1.324 2.879,-1.329 2.879,-1.324" /><path
           inkscape:connector-curvature="0"
           id="path2229"
           style="fill:none;stroke:#000000;stroke-width:1.06698;stroke-linecap:butt;stroke-linejoin:round;stroke-miterlimit:10;stroke-dasharray:none;stroke-opacity:1"
           d="M 68.016,326.117 V 498.52" /><text
           id="text2239"
           style="font-variant:normal;font-weight:normal;font-size:17.6px;font-family:Helvetica;-inkscape-font-specification:Helvetica;writing-mode:lr-tb;fill:#4d4d4d;fill-opacity:1;fill-rule:nonzero;stroke:none"
           transform="matrix(1,0,0,-1,28.839844,344.14063)"><tspan
             id="tspan2231"
             sodipodi:role="line"
             y="0"
             x="0 9.7855997 19.571199 24.4464">12.5</tspan><tspan
             id="tspan2233"
             sodipodi:role="line"
             y="-41.242188"
             x="0 9.7855997 19.571199 24.4464">13.0</tspan><tspan
             id="tspan2235"
             sodipodi:role="line"
             y="-82.488281"
             x="0 9.7855997 19.571199 24.4464">13.5</tspan><tspan
             id="tspan2237"
             sodipodi:role="line"
             y="-123.73437"
             x="0 9.7855997 19.571199 24.4464">14.0</tspan></text><path
           inkscape:connector-curvature="0"
           id="path2241"
           style="fill:none;stroke:#333333;stroke-width:1.06698;stroke-linecap:butt;stroke-linejoin:round;stroke-miterlimit:10;stroke-dasharray:none;stroke-opacity:1"
           d="m 65.273,350.453 h 2.743" /><path
           inkscape:connector-curvature="0"
           id="path2243"
           style="fill:none;stroke:#333333;stroke-width:1.06698;stroke-linecap:butt;stroke-linejoin:round;stroke-miterlimit:10;stroke-dasharray:none;stroke-opacity:1"
           d="m 65.273,391.695 h 2.743" /><path
           inkscape:connector-curvature="0"
           id="path2245"
           style="fill:none;stroke:#333333;stroke-width:1.06698;stroke-linecap:butt;stroke-linejoin:round;stroke-miterlimit:10;stroke-dasharray:none;stroke-opacity:1"
           d="m 65.273,432.941 h 2.743" /><path
           inkscape:connector-curvature="0"
           id="path2247"
           style="fill:none;stroke:#333333;stroke-width:1.06698;stroke-linecap:butt;stroke-linejoin:round;stroke-miterlimit:10;stroke-dasharray:none;stroke-opacity:1"
           d="m 65.273,474.188 h 2.743" /><path
           inkscape:connector-curvature="0"
           id="path2249"
           style="fill:none;stroke:#000000;stroke-width:1.06698;stroke-linecap:butt;stroke-linejoin:round;stroke-miterlimit:10;stroke-dasharray:none;stroke-opacity:1"
           d="M 68.016,326.117 H 354.52" /><path
           inkscape:connector-curvature="0"
           id="path2251"
           style="fill:none;stroke:#333333;stroke-width:1.06698;stroke-linecap:butt;stroke-linejoin:round;stroke-miterlimit:10;stroke-dasharray:none;stroke-opacity:1"
           d="m 74.445,323.379 v 2.738" /><path
           inkscape:connector-curvature="0"
           id="path2253"
           style="fill:none;stroke:#333333;stroke-width:1.06698;stroke-linecap:butt;stroke-linejoin:round;stroke-miterlimit:10;stroke-dasharray:none;stroke-opacity:1"
           d="m 140.383,323.379 v 2.738" /><path
           inkscape:connector-curvature="0"
           id="path2255"
           style="fill:none;stroke:#333333;stroke-width:1.06698;stroke-linecap:butt;stroke-linejoin:round;stroke-miterlimit:10;stroke-dasharray:none;stroke-opacity:1"
           d="m 206.32,323.379 v 2.738" /><path
           inkscape:connector-curvature="0"
           id="path2257"
           style="fill:none;stroke:#333333;stroke-width:1.06698;stroke-linecap:butt;stroke-linejoin:round;stroke-miterlimit:10;stroke-dasharray:none;stroke-opacity:1"
           d="m 272.262,323.379 v 2.738" /><path
           inkscape:connector-curvature="0"
           id="path2259"
           style="fill:none;stroke:#333333;stroke-width:1.06698;stroke-linecap:butt;stroke-linejoin:round;stroke-miterlimit:10;stroke-dasharray:none;stroke-opacity:1"
           d="m 338.199,323.379 v 2.738" /><text
           id="text2263"
           style="font-variant:normal;font-weight:normal;font-size:17.6px;font-family:Helvetica;-inkscape-font-specification:Helvetica;writing-mode:lr-tb;fill:#4d4d4d;fill-opacity:1;fill-rule:nonzero;stroke:none"
           transform="matrix(1,0,0,-1,59.769531,308.55859)"><tspan
             id="tspan2261"
             sodipodi:role="line"
             y="0"
             x="0 9.7855997 19.571199 65.929604 75.715202 85.500801 131.85921 141.64481 151.4304 197.7888 207.5744 217.36 263.71841 273.504 283.28961">240260280300320</tspan></text><text
           id="text2269"
           style="font-variant:normal;font-weight:normal;font-size:22px;font-family:Helvetica;-inkscape-font-specification:Helvetica;writing-mode:lr-tb;fill:#000000;fill-opacity:1;fill-rule:nonzero;stroke:none"
           transform="matrix(1,0,0,-1,109.76172,286.07812)"><tspan
             id="tspan2265"
             sodipodi:role="line"
             y="0"
             x="0 17.094 32.978001 48.862 54.956001 70.839996 83.071999 95.304001 107.536 112.42 117.304 129.536 141.76801 147.862 160.09399 172.326 184.558 196.78999">GDD Deadline 2007 </tspan><tspan
             id="tspan2267"
             sodipodi:role="line"
             y="23.757822"
             x="40.363289 47.689289 59.921291 67.247292 79.479286 84.363289 96.595291 108.82729 113.71129 119.80529 132.03729 144.26929 155.26929">(ordinal day)</tspan></text><text
           id="text2273"
           style="font-variant:normal;font-weight:normal;font-size:22px;font-family:Helvetica;-inkscape-font-specification:Helvetica;writing-mode:lr-tb;fill:#000000;fill-opacity:1;fill-rule:nonzero;stroke:none"
           transform="matrix(0,1,1,0,21.261719,342.62109)"><tspan
             id="tspan2271"
             sodipodi:role="line"
             y="0"
             x="0 15.884 30.535999 45.188 51.282001 58.608002 70.839996 78.166 84.260002 90.353996 102.586 114.818 127.05">CPP (h), 2008</tspan></text><text
           id="text2301"
           style="font-variant:normal;font-weight:bold;font-size:14px;font-family:Helvetica;-inkscape-font-specification:Helvetica-Bold;writing-mode:lr-tb;fill:#000000;fill-opacity:1;fill-rule:nonzero;stroke:none"
           transform="matrix(1,0,0,-1,5.054688,488.88281)"><tspan
             id="tspan2299"
             y="0"
             x="0">A</tspan></text></g></g><g
       id="g2303"><path
         inkscape:connector-curvature="0"
         id="path2305"
         style="fill:#ffffff;fill-opacity:1;fill-rule:nonzero;stroke:none"
         d="M 0,252 H 360 V 0 H 0 Z" /></g><g
       id="g2307"><g
         clip-path="url(#clipPath2313)"
         id="g2309"><path
           inkscape:connector-curvature="0"
           id="path2315"
           style="fill:none;stroke:#ffffff;stroke-width:1.06698;stroke-linecap:round;stroke-linejoin:round;stroke-miterlimit:10;stroke-dasharray:none;stroke-opacity:1"
           d="M 0,252 H 360 V 0 H 0 Z" /><path
           inkscape:connector-curvature="0"
           id="path2317"
           style="fill:#bebebe;fill-opacity:1;fill-rule:nonzero;stroke:#000000;stroke-width:1.41732;stroke-linecap:round;stroke-linejoin:round;stroke-miterlimit:10;stroke-dasharray:none;stroke-opacity:1"
           d="m 133.371,189.203 c 0,-6.637 -9.953,-6.637 -9.953,0 0,6.637 9.953,6.637 9.953,0" /><path
           inkscape:connector-curvature="0"
           id="path2319"
           style="fill:#bebebe;fill-opacity:1;fill-rule:nonzero;stroke:#000000;stroke-width:1.41732;stroke-linecap:round;stroke-linejoin:round;stroke-miterlimit:10;stroke-dasharray:none;stroke-opacity:1"
           d="m 231.465,138.961 c 0,-6.637 -9.953,-6.637 -9.953,0 0,6.637 9.953,6.637 9.953,0" /><path
           inkscape:connector-curvature="0"
           id="path2321"
           style="fill:#bebebe;fill-opacity:1;fill-rule:nonzero;stroke:#000000;stroke-width:1.41732;stroke-linecap:round;stroke-linejoin:round;stroke-miterlimit:10;stroke-dasharray:none;stroke-opacity:1"
           d="m 157.047,189.406 c 0,-6.636 -9.953,-6.636 -9.953,0 0,6.637 9.953,6.637 9.953,0" /><path
           inkscape:connector-curvature="0"
           id="path2323"
           style="fill:#bebebe;fill-opacity:1;fill-rule:nonzero;stroke:#000000;stroke-width:1.41732;stroke-linecap:round;stroke-linejoin:round;stroke-miterlimit:10;stroke-dasharray:none;stroke-opacity:1"
           d="m 126.605,209.363 c 0,-6.636 -9.953,-6.636 -9.953,0 0,6.637 9.953,6.637 9.953,0" /><path
           inkscape:connector-curvature="0"
           id="path2325"
           style="fill:#bebebe;fill-opacity:1;fill-rule:nonzero;stroke:#000000;stroke-width:1.41732;stroke-linecap:round;stroke-linejoin:round;stroke-miterlimit:10;stroke-dasharray:none;stroke-opacity:1"
           d="m 143.52,191.445 c 0,-6.636 -9.954,-6.636 -9.954,0 0,6.637 9.954,6.637 9.954,0" /><path
           inkscape:connector-curvature="0"
           id="path2327"
           style="fill:#bebebe;fill-opacity:1;fill-rule:nonzero;stroke:#000000;stroke-width:1.41732;stroke-linecap:round;stroke-linejoin:round;stroke-miterlimit:10;stroke-dasharray:none;stroke-opacity:1"
           d="m 275.441,127.59 c 0,-6.637 -9.953,-6.637 -9.953,0 0,6.637 9.953,6.637 9.953,0" /><path
           inkscape:connector-curvature="0"
           id="path2329"
           style="fill:#bebebe;fill-opacity:1;fill-rule:nonzero;stroke:#000000;stroke-width:1.41732;stroke-linecap:round;stroke-linejoin:round;stroke-miterlimit:10;stroke-dasharray:none;stroke-opacity:1"
           d="m 332.945,99.93 c 0,-6.637 -9.953,-6.637 -9.953,0 0,6.632 9.953,6.632 9.953,0" /><path
           inkscape:connector-curvature="0"
           id="path2331"
           style="fill:#bebebe;fill-opacity:1;fill-rule:nonzero;stroke:#000000;stroke-width:1.41732;stroke-linecap:round;stroke-linejoin:round;stroke-miterlimit:10;stroke-dasharray:none;stroke-opacity:1"
           d="m 187.492,169.605 c 0,-6.632 -9.953,-6.632 -9.953,0 0,6.637 9.953,6.637 9.953,0" /><path
           inkscape:connector-curvature="0"
           id="path2333"
           style="fill:#bebebe;fill-opacity:1;fill-rule:nonzero;stroke:#000000;stroke-width:1.41732;stroke-linecap:round;stroke-linejoin:round;stroke-miterlimit:10;stroke-dasharray:none;stroke-opacity:1"
           d="m 316.031,99.617 c 0,-6.633 -9.953,-6.633 -9.953,0 0,6.637 9.953,6.637 9.953,0" /><path
           inkscape:connector-curvature="0"
           id="path2335"
           style="fill:#bebebe;fill-opacity:1;fill-rule:nonzero;stroke:#000000;stroke-width:1.41732;stroke-linecap:round;stroke-linejoin:round;stroke-miterlimit:10;stroke-dasharray:none;stroke-opacity:1"
           d="m 346.473,85.07 c 0,-6.636 -9.953,-6.636 -9.953,0 0,6.637 9.953,6.637 9.953,0" /><path
           inkscape:connector-curvature="0"
           id="path2337"
           style="fill:#bebebe;fill-opacity:1;fill-rule:nonzero;stroke:#000000;stroke-width:1.41732;stroke-linecap:round;stroke-linejoin:round;stroke-miterlimit:10;stroke-dasharray:none;stroke-opacity:1"
           d="m 163.812,195.961 c 0,-6.637 -9.953,-6.637 -9.953,0 0,6.637 9.953,6.637 9.953,0" /><path
           inkscape:connector-curvature="0"
           id="path2339"
           style="fill:#bebebe;fill-opacity:1;fill-rule:nonzero;stroke:#000000;stroke-width:1.41732;stroke-linecap:round;stroke-linejoin:round;stroke-miterlimit:10;stroke-dasharray:none;stroke-opacity:1"
           d="m 204.406,153.551 c 0,-6.633 -9.953,-6.633 -9.953,0 0,6.637 9.953,6.637 9.953,0" /><path
           inkscape:connector-curvature="0"
           id="path2341"
           style="fill:#000000;fill-opacity:1;fill-rule:nonzero;stroke:#000000;stroke-width:1.41732;stroke-linecap:round;stroke-linejoin:round;stroke-miterlimit:10;stroke-dasharray:none;stroke-opacity:1"
           d="m 332.945,116.879 c 0,-6.637 -9.953,-6.637 -9.953,0 0,6.633 9.953,6.633 9.953,0" /><path
           inkscape:connector-curvature="0"
           id="path2343"
           style="fill:#000000;fill-opacity:1;fill-rule:nonzero;stroke:#000000;stroke-width:1.41732;stroke-linecap:round;stroke-linejoin:round;stroke-miterlimit:10;stroke-dasharray:none;stroke-opacity:1"
           d="m 180.727,177.547 c 0,-6.637 -9.954,-6.637 -9.954,0 0,6.637 9.954,6.637 9.954,0" /><path
           inkscape:connector-curvature="0"
           id="path2345"
           style="fill:#000000;fill-opacity:1;fill-rule:nonzero;stroke:#000000;stroke-width:1.41732;stroke-linecap:round;stroke-linejoin:round;stroke-miterlimit:10;stroke-dasharray:none;stroke-opacity:1"
           d="m 146.902,156.984 c 0,-6.636 -9.953,-6.636 -9.953,0 0,6.633 9.953,6.633 9.953,0" /><path
           inkscape:connector-curvature="0"
           id="path2347"
           style="fill:#000000;fill-opacity:1;fill-rule:nonzero;stroke:#000000;stroke-width:1.41732;stroke-linecap:round;stroke-linejoin:round;stroke-miterlimit:10;stroke-dasharray:none;stroke-opacity:1"
           d="m 160.43,175.402 c 0,-6.632 -9.953,-6.632 -9.953,0 0,6.637 9.953,6.637 9.953,0" /><path
           inkscape:connector-curvature="0"
           id="path2349"
           style="fill:#000000;fill-opacity:1;fill-rule:nonzero;stroke:#000000;stroke-width:1.41732;stroke-linecap:round;stroke-linejoin:round;stroke-miterlimit:10;stroke-dasharray:none;stroke-opacity:1"
           d="m 126.605,183.215 c 0,-6.637 -9.953,-6.637 -9.953,0 0,6.633 9.953,6.633 9.953,0" /><path
           inkscape:connector-curvature="0"
           id="path2351"
           style="fill:#000000;fill-opacity:1;fill-rule:nonzero;stroke:#000000;stroke-width:1.41732;stroke-linecap:round;stroke-linejoin:round;stroke-miterlimit:10;stroke-dasharray:none;stroke-opacity:1"
           d="m 133.371,182.059 c 0,-6.633 -9.953,-6.633 -9.953,0 0,6.636 9.953,6.636 9.953,0" /><path
           inkscape:connector-curvature="0"
           id="path2353"
           style="fill:#000000;fill-opacity:1;fill-rule:nonzero;stroke:#000000;stroke-width:1.41732;stroke-linecap:round;stroke-linejoin:round;stroke-miterlimit:10;stroke-dasharray:none;stroke-opacity:1"
           d="m 123.223,194.332 c 0,-6.633 -9.953,-6.633 -9.953,0 0,6.637 9.953,6.637 9.953,0" /><path
           inkscape:connector-curvature="0"
           id="path2355"
           style="fill:#000000;fill-opacity:1;fill-rule:nonzero;stroke:#000000;stroke-width:1.41732;stroke-linecap:round;stroke-linejoin:round;stroke-miterlimit:10;stroke-dasharray:none;stroke-opacity:1"
           d="m 89.398,202.746 c 0,-6.637 -9.953,-6.637 -9.953,0 0,6.633 9.953,6.633 9.953,0" /><path
           inkscape:connector-curvature="0"
           id="path2357"
           style="fill:#000000;fill-opacity:1;fill-rule:nonzero;stroke:#000000;stroke-width:1.41732;stroke-linecap:round;stroke-linejoin:round;stroke-miterlimit:10;stroke-dasharray:none;stroke-opacity:1"
           d="m 102.926,209.785 c 0,-6.637 -9.953,-6.637 -9.953,0 0,6.637 9.953,6.637 9.953,0" /><path
           inkscape:connector-curvature="0"
           id="path2359"
           style="fill:#000000;fill-opacity:1;fill-rule:nonzero;stroke:#000000;stroke-width:1.41732;stroke-linecap:round;stroke-linejoin:round;stroke-miterlimit:10;stroke-dasharray:none;stroke-opacity:1"
           d="m 86.016,223.391 c 0,-6.637 -9.954,-6.637 -9.954,0 0,6.632 9.954,6.632 9.954,0" /><path
           inkscape:connector-curvature="0"
           id="path2361"
           style="fill:none;stroke:#000000;stroke-width:2.13396;stroke-linecap:butt;stroke-linejoin:round;stroke-miterlimit:10;stroke-dasharray:none;stroke-opacity:1"
           d="m 81.039,206.051 3.125,-1.199 12.5,-4.782 3.129,-1.195 3.125,-1.199 9.375,-3.586 3.129,-1.195 3.125,-1.2 12.5,-4.781 3.129,-1.195 3.125,-1.199 12.5,-4.782 3.129,-1.199 12.5,-4.781 3.129,-1.199 15.625,-5.977 3.128,-1.199 12.5,-4.781 3.129,-1.2 15.625,-5.976 3.129,-1.199 12.5,-4.782 3.125,-1.199 3.129,-1.195 12.5,-4.781 3.129,-1.2 12.5,-4.781 3.125,-1.199 3.129,-1.195 12.5,-4.782 3.125,-1.199 3.129,-1.195 9.375,-3.586 3.125,-1.199 3.129,-1.196 9.375,-3.586 3.125,-1.199 3.125,-1.195 3.129,-1.196" /><path
           inkscape:connector-curvature="0"
           id="path2363"
           style="fill:none;stroke:#bebebe;stroke-width:2.13396;stroke-linecap:butt;stroke-linejoin:round;stroke-miterlimit:10;stroke-dasharray:none;stroke-opacity:1"
           d="m 121.629,202.547 2.781,-1.469 2.785,-1.473 2.782,-1.468 2.785,-1.469 2.781,-1.473 2.785,-1.468 2.781,-1.473 2.786,-1.469 2.781,-1.473 2.785,-1.468 2.781,-1.473 2.785,-1.469 2.782,-1.472 2.785,-1.469 2.781,-1.473 2.785,-1.468 2.781,-1.473 2.786,-1.469 2.781,-1.469 2.785,-1.472 2.781,-1.469 2.785,-1.473 2.782,-1.468 2.785,-1.473 2.781,-1.469 2.785,-1.473 2.781,-1.468 2.786,-1.473 2.781,-1.469 2.785,-1.472 2.781,-1.469 2.785,-1.469 2.782,-1.472 2.781,-1.469 2.785,-1.473 2.781,-1.469 2.785,-1.472 2.782,-1.469 2.785,-1.473 2.781,-1.468 2.785,-1.473 2.782,-1.469 2.785,-1.473 2.781,-1.468 2.785,-1.473 2.781,-1.469 2.786,-1.468 2.781,-1.473 2.785,-1.469 2.781,-1.472 2.785,-1.469 2.782,-1.473 2.785,-1.469 2.781,-1.472 2.785,-1.469 2.781,-1.473 2.786,-1.468 2.781,-1.473 2.785,-1.469 2.781,-1.473 2.785,-1.468 2.782,-1.469 2.785,-1.473 2.781,-1.468 2.785,-1.473 2.781,-1.469 2.786,-1.472 2.781,-1.469 2.785,-1.473 2.781,-1.469 2.781,-1.472 2.786,-1.469 2.781,-1.473 2.785,-1.468 2.781,-1.469 2.785,-1.473 2.782,-1.469 2.785,-1.472 2.781,-1.469" /><path
           inkscape:connector-curvature="0"
           id="path2365"
           style="fill:none;stroke:#000000;stroke-width:1.06698;stroke-linecap:butt;stroke-linejoin:round;stroke-miterlimit:10;stroke-dasharray:none;stroke-opacity:1"
           d="M 68.016,74.117 V 246.52" /><text
           id="text2375"
           style="font-variant:normal;font-weight:normal;font-size:17.6px;font-family:Helvetica;-inkscape-font-specification:Helvetica;writing-mode:lr-tb;fill:#4d4d4d;fill-opacity:1;fill-rule:nonzero;stroke:none"
           transform="matrix(1,0,0,-1,28.839844,92.140625)"><tspan
             id="tspan2367"
             sodipodi:role="line"
             y="0"
             x="0 9.7855997 19.571199 24.4464">12.5</tspan><tspan
             id="tspan2369"
             sodipodi:role="line"
             y="-41.242188"
             x="0 9.7855997 19.571199 24.4464">13.0</tspan><tspan
             id="tspan2371"
             sodipodi:role="line"
             y="-82.488281"
             x="0 9.7855997 19.571199 24.4464">13.5</tspan><tspan
             id="tspan2373"
             sodipodi:role="line"
             y="-123.73437"
             x="0 9.7855997 19.571199 24.4464">14.0</tspan></text><path
           inkscape:connector-curvature="0"
           id="path2377"
           style="fill:none;stroke:#333333;stroke-width:1.06698;stroke-linecap:butt;stroke-linejoin:round;stroke-miterlimit:10;stroke-dasharray:none;stroke-opacity:1"
           d="m 65.273,98.453 h 2.743" /><path
           inkscape:connector-curvature="0"
           id="path2379"
           style="fill:none;stroke:#333333;stroke-width:1.06698;stroke-linecap:butt;stroke-linejoin:round;stroke-miterlimit:10;stroke-dasharray:none;stroke-opacity:1"
           d="m 65.273,139.695 h 2.743" /><path
           inkscape:connector-curvature="0"
           id="path2381"
           style="fill:none;stroke:#333333;stroke-width:1.06698;stroke-linecap:butt;stroke-linejoin:round;stroke-miterlimit:10;stroke-dasharray:none;stroke-opacity:1"
           d="m 65.273,180.941 h 2.743" /><path
           inkscape:connector-curvature="0"
           id="path2383"
           style="fill:none;stroke:#333333;stroke-width:1.06698;stroke-linecap:butt;stroke-linejoin:round;stroke-miterlimit:10;stroke-dasharray:none;stroke-opacity:1"
           d="m 65.273,222.188 h 2.743" /><path
           inkscape:connector-curvature="0"
           id="path2385"
           style="fill:none;stroke:#000000;stroke-width:1.06698;stroke-linecap:butt;stroke-linejoin:round;stroke-miterlimit:10;stroke-dasharray:none;stroke-opacity:1"
           d="M 68.016,74.117 H 354.52" /><path
           inkscape:connector-curvature="0"
           id="path2387"
           style="fill:none;stroke:#333333;stroke-width:1.06698;stroke-linecap:butt;stroke-linejoin:round;stroke-miterlimit:10;stroke-dasharray:none;stroke-opacity:1"
           d="m 128.395,71.379 v 2.738" /><path
           inkscape:connector-curvature="0"
           id="path2389"
           style="fill:none;stroke:#333333;stroke-width:1.06698;stroke-linecap:butt;stroke-linejoin:round;stroke-miterlimit:10;stroke-dasharray:none;stroke-opacity:1"
           d="m 196.047,71.379 v 2.738" /><path
           inkscape:connector-curvature="0"
           id="path2391"
           style="fill:none;stroke:#333333;stroke-width:1.06698;stroke-linecap:butt;stroke-linejoin:round;stroke-miterlimit:10;stroke-dasharray:none;stroke-opacity:1"
           d="m 263.699,71.379 v 2.738" /><path
           inkscape:connector-curvature="0"
           id="path2393"
           style="fill:none;stroke:#333333;stroke-width:1.06698;stroke-linecap:butt;stroke-linejoin:round;stroke-miterlimit:10;stroke-dasharray:none;stroke-opacity:1"
           d="m 331.352,71.379 v 2.738" /><text
           id="text2397"
           style="font-variant:normal;font-weight:normal;font-size:17.6px;font-family:Helvetica;-inkscape-font-specification:Helvetica;writing-mode:lr-tb;fill:#4d4d4d;fill-opacity:1;fill-rule:nonzero;stroke:none"
           transform="matrix(1,0,0,-1,113.71875,56.558594)"><tspan
             id="tspan2395"
             sodipodi:role="line"
             y="0"
             x="0 9.7855997 19.571199 67.636803 77.422401 87.208 135.2912 145.0768 154.8624 202.92799 212.71359 222.49921">260280300320</tspan></text><text
           id="text2403"
           style="font-variant:normal;font-weight:normal;font-size:22px;font-family:Helvetica;-inkscape-font-specification:Helvetica;writing-mode:lr-tb;fill:#000000;fill-opacity:1;fill-rule:nonzero;stroke:none"
           transform="matrix(1,0,0,-1,109.76172,34.078125)"><tspan
             id="tspan2399"
             sodipodi:role="line"
             y="0"
             x="0 17.094 32.978001 48.862 54.956001 70.839996 83.071999 95.304001 107.536 112.42 117.304 129.536 141.76801 147.862 160.09399 172.326 184.558 196.78999">GDD Deadline 2017 </tspan><tspan
             id="tspan2401"
             sodipodi:role="line"
             y="23.757822"
             x="40.363289 47.689289 59.921291 67.247292 79.479286 84.363289 96.595291 108.82729 113.71129 119.80529 132.03729 144.26929 155.26929">(ordinal day)</tspan></text><text
           id="text2407"
           style="font-variant:normal;font-weight:normal;font-size:22px;font-family:Helvetica;-inkscape-font-specification:Helvetica;writing-mode:lr-tb;fill:#000000;fill-opacity:1;fill-rule:nonzero;stroke:none"
           transform="matrix(0,1,1,0,21.261719,90.621094)"><tspan
             id="tspan2405"
             sodipodi:role="line"
             y="0"
             x="0 15.884 30.535999 45.188 51.282001 58.608002 70.839996 78.166 84.260002 90.353996 102.586 114.818 127.05">CPP (h), 2018</tspan></text><text
           id="text2435"
           style="font-variant:normal;font-weight:bold;font-size:14px;font-family:Helvetica;-inkscape-font-specification:Helvetica-Bold;writing-mode:lr-tb;fill:#000000;fill-opacity:1;fill-rule:nonzero;stroke:none"
           transform="matrix(1,0,0,-1,5.054688,236.88281)"><tspan
             id="tspan2433"
             y="0"
             x="0">B</tspan></text></g></g><g
       id="g2006"
       transform="translate(-31.178375,-89.543661)"><text
         transform="scale(1,-1)"
         style="font-variant:normal;font-weight:normal;font-size:18px;font-family:Helvetica;-inkscape-font-specification:Helvetica;writing-mode:lr-tb;fill:#000000;fill-opacity:1;fill-rule:nonzero;stroke:none"
         id="text202-9-3"
         x="347.41971"
         y="-556.23773"><tspan
           x="347.41971 357.01971"
           y="-556.23773"
           sodipodi:role="line"
           id="tspan198-9-8">JP</tspan><tspan
           sodipodi:role="line"
           id="tspan200-7-1"
           x="347.41971"
           y="-533.73773" /></text><path
         d="m 305.85638,539.90056 h 13.825"
         style="fill:none;stroke:#bebebe;stroke-width:3.20093;stroke-linecap:butt;stroke-linejoin:round;stroke-miterlimit:10;stroke-dasharray:none;stroke-opacity:1"
         id="path638-3-6-5"
         inkscape:connector-curvature="0" /><text
         transform="scale(1,-1)"
         style="font-variant:normal;font-weight:normal;font-size:18px;font-family:Helvetica;-inkscape-font-specification:Helvetica;writing-mode:lr-tb;fill:#000000;fill-opacity:1;fill-rule:nonzero;stroke:none;stroke-width:0.999998"
         id="text202-1-7-3"
         x="343.51721"
         y="-535.97913"><tspan
           y="-535.97913"
           x="343.51721"
           style="stroke-width:0.999998"
           sodipodi:role="line"
           id="tspan198-8-6-5">US</tspan><tspan
           style="stroke-width:0.999998"
           sodipodi:role="line"
           id="tspan200-8-2-4"
           x="343.51721"
           y="-513.47913" /></text><path
         inkscape:connector-curvature="0"
         id="path7677-9-3"
         style="fill:#000000;fill-opacity:1;fill-rule:nonzero;stroke:#000000;stroke-width:1.41732;stroke-linecap:round;stroke-linejoin:round;stroke-miterlimit:10;stroke-dasharray:none;stroke-opacity:1"
         d="m 332.34001,566.53501 h 8.82 v -8.82 h -8.82 z" /><path
         inkscape:connector-curvature="0"
         id="path7667-4-6"
         style="fill:#bebebe;fill-opacity:1;fill-rule:nonzero;stroke:#000000;stroke-width:1.41732;stroke-linecap:round;stroke-linejoin:round;stroke-miterlimit:10;stroke-dasharray:none;stroke-opacity:1"
         d="m 330.09001,544.78501 h 8.82 v -8.82 h -8.82 z" /><path
         inkscape:connector-curvature="0"
         id="path638-3-6-3-5"
         style="fill:none;stroke:#bebebe;stroke-width:3.20093;stroke-linecap:butt;stroke-linejoin:round;stroke-miterlimit:10;stroke-dasharray:none;stroke-opacity:1"
         d="m 285.77501,540.00001 h 13.825" /><path
         d="m 287.07526,562.87501 h 14.79975"
         style="fill:none;stroke:#000000;stroke-width:3.31185;stroke-linecap:butt;stroke-linejoin:round;stroke-miterlimit:10;stroke-dasharray:none;stroke-opacity:1"
         id="path632-9-4-5-8-9"
         inkscape:connector-curvature="0" /><path
         inkscape:connector-curvature="0"
         id="path632-9-4-5-1-7-5"
         style="fill:none;stroke:#000000;stroke-width:3.31185;stroke-linecap:butt;stroke-linejoin:round;stroke-miterlimit:10;stroke-dasharray:none;stroke-opacity:1"
         d="m 306.37501,562.87501 h 14.79975" /><text
         transform="scale(1,-1)"
         y="-576.46582"
         x="328.64386"
         id="text202-9-0-4"
         style="font-variant:normal;font-weight:normal;font-size:18px;font-family:Helvetica;-inkscape-font-specification:Helvetica;writing-mode:lr-tb;fill:#000000;fill-opacity:1;fill-rule:nonzero;stroke:none;stroke-width:0.999998"><tspan
           y="-576.46582"
           x="328.64386"
           style="stroke-width:0.999998"
           id="tspan198-9-6-9"
           sodipodi:role="line">2008</tspan><tspan
           style="stroke-width:0.999998"
           y="-553.96582"
           x="328.64386"
           id="tspan200-7-2-1"
           sodipodi:role="line" /></text></g><g
       id="g2121"
       transform="translate(-424.80883,-351.57388)"><g
         id="g8378"
         transform="translate(595.47193,421.94379)"><path
           d="m 137.65888,126.56996 c 0,-6.636 -9.953,-6.636 -9.953,0 0,6.637 9.953,6.637 9.953,0"
           style="fill:#bebebe;fill-opacity:1;fill-rule:nonzero;stroke:#000000;stroke-width:1.41732;stroke-linecap:round;stroke-linejoin:round;stroke-miterlimit:10;stroke-dasharray:none;stroke-opacity:1"
           id="path96-4"
           inkscape:connector-curvature="0" /><text
           transform="matrix(1,0,0,-1,0,-1.0874999e-6)"
           style="font-variant:normal;font-weight:normal;font-size:18px;font-family:Helvetica;-inkscape-font-specification:Helvetica;writing-mode:lr-tb;fill:#000000;fill-opacity:1;fill-rule:nonzero;stroke:none"
           id="text202"
           x="146.8228"
           y="-141.41891"><tspan
             x="146.8228 156.42281"
             y="-141.41891"
             sodipodi:role="line"
             id="tspan198">JP</tspan><tspan
             sodipodi:role="line"
             id="tspan200"
             x="146.8228"
             y="-118.91891" /></text><path
           inkscape:connector-curvature="0"
           id="path130-5"
           style="fill:#000000;fill-opacity:1;fill-rule:nonzero;stroke:#000000;stroke-width:1.41732;stroke-linecap:round;stroke-linejoin:round;stroke-miterlimit:10;stroke-dasharray:none;stroke-opacity:1"
           d="m 138.15441,148.41849 c 0,-6.633 -9.953,-6.633 -9.953,0 0,6.636 9.953,6.636 9.953,0" /><g
           id="g778"
           transform="translate(-198.94151,12.004874)"><path
             d="m 289.39519,133.38461 h 14.79975"
             style="fill:none;stroke:#000000;stroke-width:3.31185;stroke-linecap:butt;stroke-linejoin:round;stroke-miterlimit:10;stroke-dasharray:none;stroke-opacity:1"
             id="path632-9-4-5"
             inkscape:connector-curvature="0" /><path
             inkscape:connector-curvature="0"
             id="path632-9-4-5-1"
             style="fill:none;stroke:#000000;stroke-width:3.31185;stroke-linecap:butt;stroke-linejoin:round;stroke-miterlimit:10;stroke-dasharray:none;stroke-opacity:1"
             d="m 304.19494,133.38461 h 14.79975" /></g><path
           d="m 105.25946,125.08177 h 13.825"
           style="fill:none;stroke:#bebebe;stroke-width:3.20093;stroke-linecap:butt;stroke-linejoin:round;stroke-miterlimit:10;stroke-dasharray:none;stroke-opacity:1"
           id="path638-3"
           inkscape:connector-curvature="0" /><path
           d="m 91.43446,125.08177 h 13.825"
           style="fill:none;stroke:#bebebe;stroke-width:3.20093;stroke-linecap:butt;stroke-linejoin:round;stroke-miterlimit:10;stroke-dasharray:none;stroke-opacity:1"
           id="path638-4-7"
           inkscape:connector-curvature="0" /><text
           transform="scale(1,-1)"
           style="font-variant:normal;font-weight:normal;font-size:18px;font-family:Helvetica;-inkscape-font-specification:Helvetica;writing-mode:lr-tb;fill:#000000;fill-opacity:1;fill-rule:nonzero;stroke:none;stroke-width:0.999998"
           id="text202-1"
           x="142.9203"
           y="-121.16033"><tspan
             y="-121.16033"
             x="142.9203"
             style="stroke-width:0.999998"
             sodipodi:role="line"
             id="tspan198-8">US</tspan><tspan
             style="stroke-width:0.999998"
             sodipodi:role="line"
             id="tspan200-8"
             x="142.9203"
             y="-98.660332" /></text></g><text
         transform="scale(1,-1)"
         style="font-variant:normal;font-weight:normal;font-size:18px;font-family:Helvetica;-inkscape-font-specification:Helvetica;writing-mode:lr-tb;fill:#000000;fill-opacity:1;fill-rule:nonzero;stroke:none;stroke-width:0.999998"
         id="text202-9-0-2"
         x="722.5752"
         y="-585.61523"><tspan
           sodipodi:role="line"
           id="tspan198-9-6-1"
           style="stroke-width:0.999998"
           x="722.5752"
           y="-585.61523">2018</tspan><tspan
           sodipodi:role="line"
           id="tspan200-7-2-1-5"
           x="722.5752"
           y="-563.11523"
           style="stroke-width:0.999998" /></text></g></g></svg>
